<mxfile host="app.diagrams.net" agent="Mozilla/5.0 (Windows NT 10.0; Win64; x64) AppleWebKit/537.36 (KHTML, like Gecko) Chrome/134.0.0.0 Safari/537.36" version="26.2.1">
  <diagram id="R2lEEEUBdFMjLlhIrx00" name="Page-1">
    <mxGraphModel dx="874" dy="465" grid="1" gridSize="10" guides="1" tooltips="1" connect="1" arrows="1" fold="1" page="1" pageScale="1" pageWidth="850" pageHeight="1100" math="0" shadow="0" extFonts="Permanent Marker^https://fonts.googleapis.com/css?family=Permanent+Marker">
      <root>
        <mxCell id="0" />
        <mxCell id="1" parent="0" />
        <mxCell id="J-O4yul9uTSDfZJT4Otk-32" value="sizes" style="rounded=0;whiteSpace=wrap;html=1;fillColor=#dae8fc;gradientColor=#7ea6e0;strokeColor=#6c8ebf;" vertex="1" parent="1">
          <mxGeometry x="110" y="230" width="120" height="40" as="geometry" />
        </mxCell>
        <mxCell id="J-O4yul9uTSDfZJT4Otk-38" value="have" style="rhombus;whiteSpace=wrap;html=1;rounded=0;fillColor=#e6d0de;gradientColor=#d5739d;strokeColor=#996185;" vertex="1" parent="1">
          <mxGeometry x="380" y="80" width="80" height="80" as="geometry" />
        </mxCell>
        <mxCell id="J-O4yul9uTSDfZJT4Otk-40" value="guage_rate" style="whiteSpace=wrap;html=1;rounded=0;fillColor=#dae8fc;gradientColor=#7ea6e0;strokeColor=#6c8ebf;" vertex="1" parent="1">
          <mxGeometry x="620" y="100" width="110" height="40" as="geometry" />
        </mxCell>
        <mxCell id="J-O4yul9uTSDfZJT4Otk-42" value="" style="endArrow=none;html=1;rounded=0;exitX=1;exitY=0.5;exitDx=0;exitDy=0;entryX=0.5;entryY=1;entryDx=0;entryDy=0;" edge="1" parent="1" source="J-O4yul9uTSDfZJT4Otk-32" target="J-O4yul9uTSDfZJT4Otk-38">
          <mxGeometry width="50" height="50" relative="1" as="geometry">
            <mxPoint x="390" y="230" as="sourcePoint" />
            <mxPoint x="440" y="180" as="targetPoint" />
            <Array as="points">
              <mxPoint x="420" y="250" />
            </Array>
          </mxGeometry>
        </mxCell>
        <mxCell id="J-O4yul9uTSDfZJT4Otk-43" value="" style="endArrow=none;html=1;rounded=0;entryX=0;entryY=0.5;entryDx=0;entryDy=0;exitX=1;exitY=0.5;exitDx=0;exitDy=0;" edge="1" parent="1" source="J-O4yul9uTSDfZJT4Otk-38" target="J-O4yul9uTSDfZJT4Otk-40">
          <mxGeometry width="50" height="50" relative="1" as="geometry">
            <mxPoint x="390" y="230" as="sourcePoint" />
            <mxPoint x="440" y="180" as="targetPoint" />
          </mxGeometry>
        </mxCell>
        <mxCell id="J-O4yul9uTSDfZJT4Otk-44" value="1" style="text;html=1;align=center;verticalAlign=middle;whiteSpace=wrap;rounded=0;" vertex="1" parent="1">
          <mxGeometry x="210" y="250" width="60" height="30" as="geometry" />
        </mxCell>
        <mxCell id="J-O4yul9uTSDfZJT4Otk-45" value="M" style="text;html=1;align=center;verticalAlign=middle;whiteSpace=wrap;rounded=0;" vertex="1" parent="1">
          <mxGeometry x="580" y="100" width="60" height="30" as="geometry" />
        </mxCell>
        <mxCell id="J-O4yul9uTSDfZJT4Otk-46" value="users" style="rounded=0;whiteSpace=wrap;html=1;fillColor=#dae8fc;gradientColor=#7ea6e0;strokeColor=#6c8ebf;" vertex="1" parent="1">
          <mxGeometry x="960" y="100" width="120" height="40" as="geometry" />
        </mxCell>
        <mxCell id="J-O4yul9uTSDfZJT4Otk-47" value="add" style="rhombus;whiteSpace=wrap;html=1;fillColor=#e6d0de;gradientColor=#d5739d;strokeColor=#996185;" vertex="1" parent="1">
          <mxGeometry x="820" y="80" width="80" height="80" as="geometry" />
        </mxCell>
        <mxCell id="J-O4yul9uTSDfZJT4Otk-48" value="" style="endArrow=none;html=1;rounded=0;entryX=0;entryY=0.5;entryDx=0;entryDy=0;exitX=1;exitY=0.5;exitDx=0;exitDy=0;" edge="1" parent="1" source="J-O4yul9uTSDfZJT4Otk-47" target="J-O4yul9uTSDfZJT4Otk-46">
          <mxGeometry width="50" height="50" relative="1" as="geometry">
            <mxPoint x="540" y="230" as="sourcePoint" />
            <mxPoint x="590" y="180" as="targetPoint" />
          </mxGeometry>
        </mxCell>
        <mxCell id="J-O4yul9uTSDfZJT4Otk-49" value="" style="endArrow=none;html=1;rounded=0;entryX=0;entryY=0.5;entryDx=0;entryDy=0;exitX=1;exitY=0.5;exitDx=0;exitDy=0;" edge="1" parent="1" source="J-O4yul9uTSDfZJT4Otk-40" target="J-O4yul9uTSDfZJT4Otk-47">
          <mxGeometry width="50" height="50" relative="1" as="geometry">
            <mxPoint x="540" y="230" as="sourcePoint" />
            <mxPoint x="590" y="180" as="targetPoint" />
          </mxGeometry>
        </mxCell>
        <mxCell id="J-O4yul9uTSDfZJT4Otk-53" value="1" style="text;html=1;align=center;verticalAlign=middle;whiteSpace=wrap;rounded=0;" vertex="1" parent="1">
          <mxGeometry x="920" y="100" width="60" height="30" as="geometry" />
        </mxCell>
        <mxCell id="J-O4yul9uTSDfZJT4Otk-54" value="M" style="text;html=1;align=center;verticalAlign=middle;whiteSpace=wrap;rounded=0;" vertex="1" parent="1">
          <mxGeometry x="130" y="270" width="60" height="30" as="geometry" />
        </mxCell>
        <mxCell id="J-O4yul9uTSDfZJT4Otk-55" value="M" style="text;html=1;align=center;verticalAlign=middle;whiteSpace=wrap;rounded=0;" vertex="1" parent="1">
          <mxGeometry x="710" y="100" width="60" height="30" as="geometry" />
        </mxCell>
        <mxCell id="J-O4yul9uTSDfZJT4Otk-56" value="prepayments" style="rounded=0;whiteSpace=wrap;html=1;fillColor=#dae8fc;gradientColor=#7ea6e0;strokeColor=#6c8ebf;" vertex="1" parent="1">
          <mxGeometry x="290" y="440" width="120" height="40" as="geometry" />
        </mxCell>
        <mxCell id="J-O4yul9uTSDfZJT4Otk-57" value="employees" style="rounded=0;whiteSpace=wrap;html=1;fillColor=#dae8fc;gradientColor=#7ea6e0;strokeColor=#6c8ebf;" vertex="1" parent="1">
          <mxGeometry x="960" y="440" width="120" height="40" as="geometry" />
        </mxCell>
        <mxCell id="J-O4yul9uTSDfZJT4Otk-58" value="have" style="rhombus;whiteSpace=wrap;html=1;fillColor=#e6d0de;gradientColor=#d5739d;strokeColor=#996185;" vertex="1" parent="1">
          <mxGeometry x="590" y="420" width="80" height="80" as="geometry" />
        </mxCell>
        <mxCell id="J-O4yul9uTSDfZJT4Otk-59" value="" style="endArrow=none;html=1;rounded=0;exitX=0.5;exitY=0;exitDx=0;exitDy=0;" edge="1" parent="1" source="J-O4yul9uTSDfZJT4Otk-58">
          <mxGeometry width="50" height="50" relative="1" as="geometry">
            <mxPoint x="550" y="460" as="sourcePoint" />
            <mxPoint x="985" y="440" as="targetPoint" />
            <Array as="points">
              <mxPoint x="630" y="390" />
              <mxPoint x="985" y="390" />
            </Array>
          </mxGeometry>
        </mxCell>
        <mxCell id="J-O4yul9uTSDfZJT4Otk-60" value="" style="endArrow=none;html=1;rounded=0;exitX=1;exitY=0.5;exitDx=0;exitDy=0;entryX=0;entryY=0.5;entryDx=0;entryDy=0;" edge="1" parent="1" source="J-O4yul9uTSDfZJT4Otk-56" target="J-O4yul9uTSDfZJT4Otk-58">
          <mxGeometry width="50" height="50" relative="1" as="geometry">
            <mxPoint x="550" y="460" as="sourcePoint" />
            <mxPoint x="600" y="410" as="targetPoint" />
          </mxGeometry>
        </mxCell>
        <mxCell id="J-O4yul9uTSDfZJT4Otk-61" value="1" style="text;html=1;align=center;verticalAlign=middle;whiteSpace=wrap;rounded=0;" vertex="1" parent="1">
          <mxGeometry x="950" y="410" width="60" height="30" as="geometry" />
        </mxCell>
        <mxCell id="J-O4yul9uTSDfZJT4Otk-62" value="M" style="text;html=1;align=center;verticalAlign=middle;whiteSpace=wrap;rounded=0;" vertex="1" parent="1">
          <mxGeometry x="400" y="430" width="60" height="30" as="geometry" />
        </mxCell>
        <mxCell id="J-O4yul9uTSDfZJT4Otk-63" value="have" style="rhombus;whiteSpace=wrap;html=1;fillColor=#e6d0de;gradientColor=#d5739d;strokeColor=#996185;" vertex="1" parent="1">
          <mxGeometry x="980" y="330" width="80" height="80" as="geometry" />
        </mxCell>
        <mxCell id="J-O4yul9uTSDfZJT4Otk-64" value="" style="endArrow=none;html=1;rounded=0;entryX=0.5;entryY=1;entryDx=0;entryDy=0;" edge="1" parent="1" source="J-O4yul9uTSDfZJT4Otk-63" target="J-O4yul9uTSDfZJT4Otk-46">
          <mxGeometry width="50" height="50" relative="1" as="geometry">
            <mxPoint x="880" y="300" as="sourcePoint" />
            <mxPoint x="930" y="250" as="targetPoint" />
          </mxGeometry>
        </mxCell>
        <mxCell id="J-O4yul9uTSDfZJT4Otk-65" value="" style="endArrow=none;html=1;rounded=0;entryX=0.5;entryY=1;entryDx=0;entryDy=0;exitX=0.5;exitY=0;exitDx=0;exitDy=0;" edge="1" parent="1" source="J-O4yul9uTSDfZJT4Otk-57" target="J-O4yul9uTSDfZJT4Otk-63">
          <mxGeometry width="50" height="50" relative="1" as="geometry">
            <mxPoint x="880" y="300" as="sourcePoint" />
            <mxPoint x="930" y="250" as="targetPoint" />
          </mxGeometry>
        </mxCell>
        <mxCell id="J-O4yul9uTSDfZJT4Otk-66" value="1" style="text;html=1;align=center;verticalAlign=middle;whiteSpace=wrap;rounded=0;" vertex="1" parent="1">
          <mxGeometry x="1000" y="140" width="60" height="30" as="geometry" />
        </mxCell>
        <mxCell id="J-O4yul9uTSDfZJT4Otk-67" value="M" style="text;html=1;align=center;verticalAlign=middle;whiteSpace=wrap;rounded=0;" vertex="1" parent="1">
          <mxGeometry x="1000" y="410" width="60" height="30" as="geometry" />
        </mxCell>
        <mxCell id="J-O4yul9uTSDfZJT4Otk-68" value="vouchers" style="rounded=0;whiteSpace=wrap;html=1;fillColor=#dae8fc;gradientColor=#7ea6e0;strokeColor=#6c8ebf;" vertex="1" parent="1">
          <mxGeometry x="120" y="745" width="120" height="40" as="geometry" />
        </mxCell>
        <mxCell id="J-O4yul9uTSDfZJT4Otk-69" value="have" style="rhombus;whiteSpace=wrap;html=1;fillColor=#e6d0de;gradientColor=#d5739d;strokeColor=#996185;" vertex="1" parent="1">
          <mxGeometry x="590" y="725" width="80" height="80" as="geometry" />
        </mxCell>
        <mxCell id="J-O4yul9uTSDfZJT4Otk-70" value="" style="endArrow=none;html=1;rounded=0;entryX=0.5;entryY=1;entryDx=0;entryDy=0;exitX=1;exitY=0.5;exitDx=0;exitDy=0;" edge="1" parent="1" source="J-O4yul9uTSDfZJT4Otk-69" target="J-O4yul9uTSDfZJT4Otk-57">
          <mxGeometry width="50" height="50" relative="1" as="geometry">
            <mxPoint x="600" y="620" as="sourcePoint" />
            <mxPoint x="650" y="570" as="targetPoint" />
            <Array as="points">
              <mxPoint x="1020" y="765" />
            </Array>
          </mxGeometry>
        </mxCell>
        <mxCell id="J-O4yul9uTSDfZJT4Otk-71" value="" style="endArrow=none;html=1;rounded=0;entryX=0;entryY=0.5;entryDx=0;entryDy=0;exitX=1;exitY=0.5;exitDx=0;exitDy=0;" edge="1" parent="1" source="J-O4yul9uTSDfZJT4Otk-68" target="J-O4yul9uTSDfZJT4Otk-69">
          <mxGeometry width="50" height="50" relative="1" as="geometry">
            <mxPoint x="510" y="620" as="sourcePoint" />
            <mxPoint x="560" y="570" as="targetPoint" />
          </mxGeometry>
        </mxCell>
        <mxCell id="J-O4yul9uTSDfZJT4Otk-72" value="1" style="text;html=1;align=center;verticalAlign=middle;whiteSpace=wrap;rounded=0;" vertex="1" parent="1">
          <mxGeometry x="980" y="480" width="60" height="30" as="geometry" />
        </mxCell>
        <mxCell id="J-O4yul9uTSDfZJT4Otk-73" value="M" style="text;html=1;align=center;verticalAlign=middle;whiteSpace=wrap;rounded=0;" vertex="1" parent="1">
          <mxGeometry x="220" y="740" width="60" height="30" as="geometry" />
        </mxCell>
        <mxCell id="J-O4yul9uTSDfZJT4Otk-74" value="add" style="rhombus;whiteSpace=wrap;html=1;fillColor=#e6d0de;gradientColor=#d5739d;strokeColor=#996185;" vertex="1" parent="1">
          <mxGeometry x="520" y="330" width="80" height="80" as="geometry" />
        </mxCell>
        <mxCell id="J-O4yul9uTSDfZJT4Otk-75" value="" style="endArrow=none;html=1;rounded=0;exitX=1;exitY=0.5;exitDx=0;exitDy=0;entryX=0;entryY=1;entryDx=0;entryDy=0;" edge="1" parent="1" source="J-O4yul9uTSDfZJT4Otk-74" target="J-O4yul9uTSDfZJT4Otk-46">
          <mxGeometry width="50" height="50" relative="1" as="geometry">
            <mxPoint x="610" y="230" as="sourcePoint" />
            <mxPoint x="660" y="180" as="targetPoint" />
            <Array as="points">
              <mxPoint x="960" y="370" />
            </Array>
          </mxGeometry>
        </mxCell>
        <mxCell id="J-O4yul9uTSDfZJT4Otk-77" value="1" style="text;html=1;align=center;verticalAlign=middle;whiteSpace=wrap;rounded=0;" vertex="1" parent="1">
          <mxGeometry x="940" y="140" width="60" height="30" as="geometry" />
        </mxCell>
        <mxCell id="J-O4yul9uTSDfZJT4Otk-78" value="attendance" style="rounded=0;whiteSpace=wrap;html=1;fillColor=#dae8fc;gradientColor=#7ea6e0;strokeColor=#6c8ebf;" vertex="1" parent="1">
          <mxGeometry x="1300" y="245" width="120" height="40" as="geometry" />
        </mxCell>
        <mxCell id="J-O4yul9uTSDfZJT4Otk-79" value="" style="endArrow=none;html=1;rounded=0;entryX=1;entryY=0.5;entryDx=0;entryDy=0;exitX=0;exitY=0.5;exitDx=0;exitDy=0;" edge="1" parent="1" source="J-O4yul9uTSDfZJT4Otk-80" target="J-O4yul9uTSDfZJT4Otk-46">
          <mxGeometry width="50" height="50" relative="1" as="geometry">
            <mxPoint x="1220" y="120" as="sourcePoint" />
            <mxPoint x="1190" y="50" as="targetPoint" />
          </mxGeometry>
        </mxCell>
        <mxCell id="J-O4yul9uTSDfZJT4Otk-80" value="registers" style="rhombus;whiteSpace=wrap;html=1;fillColor=#e6d0de;gradientColor=#d5739d;strokeColor=#996185;" vertex="1" parent="1">
          <mxGeometry x="1310" y="80" width="80" height="80" as="geometry" />
        </mxCell>
        <mxCell id="J-O4yul9uTSDfZJT4Otk-81" value="" style="endArrow=none;html=1;rounded=0;exitX=0.417;exitY=0;exitDx=0;exitDy=0;exitPerimeter=0;entryX=0.5;entryY=1;entryDx=0;entryDy=0;" edge="1" parent="1" source="J-O4yul9uTSDfZJT4Otk-78" target="J-O4yul9uTSDfZJT4Otk-80">
          <mxGeometry width="50" height="50" relative="1" as="geometry">
            <mxPoint x="1260" y="210" as="sourcePoint" />
            <mxPoint x="1260" y="160" as="targetPoint" />
          </mxGeometry>
        </mxCell>
        <mxCell id="J-O4yul9uTSDfZJT4Otk-82" value="1" style="text;html=1;align=center;verticalAlign=middle;whiteSpace=wrap;rounded=0;" vertex="1" parent="1">
          <mxGeometry x="1060" y="100" width="60" height="30" as="geometry" />
        </mxCell>
        <mxCell id="J-O4yul9uTSDfZJT4Otk-84" value="M" style="text;html=1;align=center;verticalAlign=middle;whiteSpace=wrap;rounded=0;" vertex="1" parent="1">
          <mxGeometry x="1330" y="215" width="60" height="30" as="geometry" />
        </mxCell>
        <mxCell id="J-O4yul9uTSDfZJT4Otk-85" value="" style="endArrow=none;html=1;rounded=0;exitX=0.5;exitY=0;exitDx=0;exitDy=0;entryX=0;entryY=0.5;entryDx=0;entryDy=0;" edge="1" parent="1" target="J-O4yul9uTSDfZJT4Otk-89">
          <mxGeometry width="50" height="50" relative="1" as="geometry">
            <mxPoint x="1020" y="120.00000000000023" as="sourcePoint" />
            <mxPoint x="129.99999999999977" y="580" as="targetPoint" />
            <Array as="points">
              <mxPoint x="1020" y="60" />
              <mxPoint x="80" y="60" />
              <mxPoint x="80" y="560" />
            </Array>
          </mxGeometry>
        </mxCell>
        <mxCell id="J-O4yul9uTSDfZJT4Otk-89" value="have" style="rhombus;whiteSpace=wrap;html=1;fillColor=#e6d0de;gradientColor=#d5739d;strokeColor=#996185;" vertex="1" parent="1">
          <mxGeometry x="130" y="520" width="80" height="80" as="geometry" />
        </mxCell>
        <mxCell id="J-O4yul9uTSDfZJT4Otk-91" value="1" style="text;html=1;align=center;verticalAlign=middle;whiteSpace=wrap;rounded=0;" vertex="1" parent="1">
          <mxGeometry x="970" y="80" width="60" height="30" as="geometry" />
        </mxCell>
        <mxCell id="J-O4yul9uTSDfZJT4Otk-92" value="M" style="text;html=1;align=center;verticalAlign=middle;whiteSpace=wrap;rounded=0;" vertex="1" parent="1">
          <mxGeometry x="130" y="715" width="60" height="30" as="geometry" />
        </mxCell>
        <mxCell id="J-O4yul9uTSDfZJT4Otk-93" value="salaries" style="rounded=0;whiteSpace=wrap;html=1;fillColor=#dae8fc;gradientColor=#7ea6e0;strokeColor=#6c8ebf;" vertex="1" parent="1">
          <mxGeometry x="1210" y="870" width="120" height="40" as="geometry" />
        </mxCell>
        <mxCell id="J-O4yul9uTSDfZJT4Otk-94" value="have" style="rhombus;whiteSpace=wrap;html=1;fillColor=#e6d0de;gradientColor=#d5739d;strokeColor=#996185;" vertex="1" parent="1">
          <mxGeometry x="1220" y="725" width="80" height="80" as="geometry" />
        </mxCell>
        <mxCell id="J-O4yul9uTSDfZJT4Otk-96" value="" style="endArrow=none;html=1;rounded=0;entryX=0.856;entryY=1.069;entryDx=0;entryDy=0;exitX=0;exitY=0.5;exitDx=0;exitDy=0;entryPerimeter=0;" edge="1" parent="1" source="J-O4yul9uTSDfZJT4Otk-94" target="J-O4yul9uTSDfZJT4Otk-57">
          <mxGeometry width="50" height="50" relative="1" as="geometry">
            <mxPoint x="1430" y="540" as="sourcePoint" />
            <mxPoint x="1780" y="330" as="targetPoint" />
            <Array as="points">
              <mxPoint x="1063" y="765" />
            </Array>
          </mxGeometry>
        </mxCell>
        <mxCell id="J-O4yul9uTSDfZJT4Otk-98" value="" style="endArrow=none;html=1;rounded=0;entryX=0.5;entryY=1;entryDx=0;entryDy=0;exitX=0.417;exitY=0.083;exitDx=0;exitDy=0;exitPerimeter=0;" edge="1" parent="1" source="J-O4yul9uTSDfZJT4Otk-93" target="J-O4yul9uTSDfZJT4Otk-94">
          <mxGeometry width="50" height="50" relative="1" as="geometry">
            <mxPoint x="1440" y="520" as="sourcePoint" />
            <mxPoint x="1300" y="520" as="targetPoint" />
            <Array as="points" />
          </mxGeometry>
        </mxCell>
        <mxCell id="J-O4yul9uTSDfZJT4Otk-99" value="have" style="rhombus;whiteSpace=wrap;html=1;fillColor=#e6d0de;gradientColor=#d5739d;strokeColor=#996185;" vertex="1" parent="1">
          <mxGeometry x="1220" y="990" width="80" height="80" as="geometry" />
        </mxCell>
        <mxCell id="J-O4yul9uTSDfZJT4Otk-101" value="" style="endArrow=none;html=1;rounded=0;entryX=0.417;entryY=1;entryDx=0;entryDy=0;exitX=0.5;exitY=0;exitDx=0;exitDy=0;entryPerimeter=0;" edge="1" parent="1" source="J-O4yul9uTSDfZJT4Otk-99" target="J-O4yul9uTSDfZJT4Otk-93">
          <mxGeometry width="50" height="50" relative="1" as="geometry">
            <mxPoint x="1260" y="720" as="sourcePoint" />
            <mxPoint x="1260" y="657" as="targetPoint" />
            <Array as="points" />
          </mxGeometry>
        </mxCell>
        <mxCell id="J-O4yul9uTSDfZJT4Otk-102" value="" style="endArrow=none;html=1;rounded=0;entryX=0;entryY=1;entryDx=0;entryDy=0;exitX=0;exitY=0.5;exitDx=0;exitDy=0;" edge="1" parent="1" source="J-O4yul9uTSDfZJT4Otk-99">
          <mxGeometry width="50" height="50" relative="1" as="geometry">
            <mxPoint x="1295" y="1025.0000000000002" as="sourcePoint" />
            <mxPoint x="189.99999999999977" y="779.9999999999998" as="targetPoint" />
            <Array as="points">
              <mxPoint x="190" y="1025" />
            </Array>
          </mxGeometry>
        </mxCell>
        <mxCell id="J-O4yul9uTSDfZJT4Otk-103" value="1" style="text;html=1;align=center;verticalAlign=middle;whiteSpace=wrap;rounded=0;" vertex="1" parent="1">
          <mxGeometry x="1040" y="480" width="60" height="30" as="geometry" />
        </mxCell>
        <mxCell id="J-O4yul9uTSDfZJT4Otk-104" value="M" style="text;html=1;align=center;verticalAlign=middle;whiteSpace=wrap;rounded=0;" vertex="1" parent="1">
          <mxGeometry x="1240" y="840" width="60" height="30" as="geometry" />
        </mxCell>
        <mxCell id="J-O4yul9uTSDfZJT4Otk-105" value="1" style="text;html=1;align=center;verticalAlign=middle;whiteSpace=wrap;rounded=0;" vertex="1" parent="1">
          <mxGeometry x="1240" y="905" width="60" height="30" as="geometry" />
        </mxCell>
        <mxCell id="J-O4yul9uTSDfZJT4Otk-106" value="1" style="text;html=1;align=center;verticalAlign=middle;whiteSpace=wrap;rounded=0;" vertex="1" parent="1">
          <mxGeometry x="170" y="785" width="60" height="30" as="geometry" />
        </mxCell>
        <mxCell id="J-O4yul9uTSDfZJT4Otk-107" value="late_arrivals" style="rounded=0;whiteSpace=wrap;html=1;fillColor=#dae8fc;gradientColor=#7ea6e0;strokeColor=#6c8ebf;" vertex="1" parent="1">
          <mxGeometry x="730" y="870" width="120" height="50" as="geometry" />
        </mxCell>
        <mxCell id="J-O4yul9uTSDfZJT4Otk-108" value="stocks" style="rounded=0;whiteSpace=wrap;html=1;fillColor=#dae8fc;gradientColor=#7ea6e0;strokeColor=#6c8ebf;" vertex="1" parent="1">
          <mxGeometry x="1190" y="490" width="120" height="40" as="geometry" />
        </mxCell>
        <mxCell id="J-O4yul9uTSDfZJT4Otk-109" value="" style="endArrow=none;html=1;rounded=0;exitX=0.417;exitY=0;exitDx=0;exitDy=0;exitPerimeter=0;" edge="1" parent="1" source="J-O4yul9uTSDfZJT4Otk-68" target="J-O4yul9uTSDfZJT4Otk-89">
          <mxGeometry width="50" height="50" relative="1" as="geometry">
            <mxPoint x="790" y="480" as="sourcePoint" />
            <mxPoint x="840" y="430" as="targetPoint" />
          </mxGeometry>
        </mxCell>
        <mxCell id="J-O4yul9uTSDfZJT4Otk-111" value="have" style="rhombus;whiteSpace=wrap;html=1;fillColor=#e6d0de;gradientColor=#d5739d;strokeColor=#996185;" vertex="1" parent="1">
          <mxGeometry x="1010" y="855" width="80" height="80" as="geometry" />
        </mxCell>
        <mxCell id="J-O4yul9uTSDfZJT4Otk-112" value="" style="endArrow=none;html=1;rounded=0;entryX=0.75;entryY=1;entryDx=0;entryDy=0;" edge="1" parent="1" source="J-O4yul9uTSDfZJT4Otk-111" target="J-O4yul9uTSDfZJT4Otk-57">
          <mxGeometry width="50" height="50" relative="1" as="geometry">
            <mxPoint x="790" y="840" as="sourcePoint" />
            <mxPoint x="840" y="790" as="targetPoint" />
          </mxGeometry>
        </mxCell>
        <mxCell id="J-O4yul9uTSDfZJT4Otk-113" value="" style="endArrow=none;html=1;rounded=0;entryX=0;entryY=0.5;entryDx=0;entryDy=0;exitX=1;exitY=0.5;exitDx=0;exitDy=0;" edge="1" parent="1" source="J-O4yul9uTSDfZJT4Otk-107" target="J-O4yul9uTSDfZJT4Otk-111">
          <mxGeometry width="50" height="50" relative="1" as="geometry">
            <mxPoint x="790" y="600" as="sourcePoint" />
            <mxPoint x="840" y="550" as="targetPoint" />
          </mxGeometry>
        </mxCell>
        <mxCell id="J-O4yul9uTSDfZJT4Otk-114" value="1" style="text;html=1;align=center;verticalAlign=middle;whiteSpace=wrap;rounded=0;" vertex="1" parent="1">
          <mxGeometry x="1010" y="480" width="60" height="30" as="geometry" />
        </mxCell>
        <mxCell id="J-O4yul9uTSDfZJT4Otk-115" value="M" style="text;html=1;align=center;verticalAlign=middle;whiteSpace=wrap;rounded=0;" vertex="1" parent="1">
          <mxGeometry x="840" y="865" width="60" height="30" as="geometry" />
        </mxCell>
        <mxCell id="J-O4yul9uTSDfZJT4Otk-116" value="add" style="rhombus;whiteSpace=wrap;html=1;fillColor=#e6d0de;gradientColor=#d5739d;strokeColor=#996185;" vertex="1" parent="1">
          <mxGeometry x="1070" y="330" width="80" height="80" as="geometry" />
        </mxCell>
        <mxCell id="J-O4yul9uTSDfZJT4Otk-117" value="" style="endArrow=none;html=1;rounded=0;entryX=0.5;entryY=0;entryDx=0;entryDy=0;exitX=0.75;exitY=0;exitDx=0;exitDy=0;" edge="1" parent="1" source="J-O4yul9uTSDfZJT4Otk-66" target="J-O4yul9uTSDfZJT4Otk-116">
          <mxGeometry width="50" height="50" relative="1" as="geometry">
            <mxPoint x="1510" y="220" as="sourcePoint" />
            <mxPoint x="1370" y="220" as="targetPoint" />
          </mxGeometry>
        </mxCell>
        <mxCell id="J-O4yul9uTSDfZJT4Otk-118" value="" style="endArrow=none;html=1;rounded=0;entryX=0.5;entryY=1;entryDx=0;entryDy=0;exitX=0;exitY=0;exitDx=0;exitDy=0;" edge="1" parent="1" source="J-O4yul9uTSDfZJT4Otk-108" target="J-O4yul9uTSDfZJT4Otk-116">
          <mxGeometry width="50" height="50" relative="1" as="geometry">
            <mxPoint x="950" y="390" as="sourcePoint" />
            <mxPoint x="1000" y="340" as="targetPoint" />
          </mxGeometry>
        </mxCell>
        <mxCell id="J-O4yul9uTSDfZJT4Otk-119" value="1" style="text;html=1;align=center;verticalAlign=middle;whiteSpace=wrap;rounded=0;" vertex="1" parent="1">
          <mxGeometry x="1030" y="140" width="60" height="30" as="geometry" />
        </mxCell>
        <mxCell id="J-O4yul9uTSDfZJT4Otk-120" value="M" style="text;html=1;align=center;verticalAlign=middle;whiteSpace=wrap;rounded=0;" vertex="1" parent="1">
          <mxGeometry x="1150" y="480" width="60" height="30" as="geometry" />
        </mxCell>
        <mxCell id="J-O4yul9uTSDfZJT4Otk-121" value="&lt;u&gt;id&lt;/u&gt;" style="ellipse;whiteSpace=wrap;html=1;fillColor=#f8cecc;strokeColor=#b85450;gradientColor=#ea6b66;gradientDirection=east;" vertex="1" parent="1">
          <mxGeometry x="120" y="150" width="100" height="40" as="geometry" />
        </mxCell>
        <mxCell id="J-O4yul9uTSDfZJT4Otk-122" value="user_id" style="ellipse;whiteSpace=wrap;html=1;fillColor=#f8cecc;gradientColor=#ea6b66;strokeColor=#b85450;" vertex="1" parent="1">
          <mxGeometry x="210" y="180" width="100" height="40" as="geometry" />
        </mxCell>
        <mxCell id="J-O4yul9uTSDfZJT4Otk-123" value="size" style="ellipse;whiteSpace=wrap;html=1;fillColor=#f8cecc;gradientColor=#ea6b66;strokeColor=#b85450;" vertex="1" parent="1">
          <mxGeometry x="190" y="290" width="100" height="40" as="geometry" />
        </mxCell>
        <mxCell id="J-O4yul9uTSDfZJT4Otk-124" value="" style="endArrow=none;html=1;rounded=0;exitX=0;exitY=0.5;exitDx=0;exitDy=0;entryX=0.5;entryY=1;entryDx=0;entryDy=0;" edge="1" parent="1" source="J-O4yul9uTSDfZJT4Otk-74" target="J-O4yul9uTSDfZJT4Otk-32">
          <mxGeometry width="50" height="50" relative="1" as="geometry">
            <mxPoint x="590" y="280" as="sourcePoint" />
            <mxPoint x="640" y="230" as="targetPoint" />
            <Array as="points">
              <mxPoint x="170" y="370" />
            </Array>
          </mxGeometry>
        </mxCell>
        <mxCell id="J-O4yul9uTSDfZJT4Otk-125" value="" style="endArrow=none;html=1;rounded=0;exitX=0;exitY=0;exitDx=0;exitDy=0;entryX=0.669;entryY=1.006;entryDx=0;entryDy=0;entryPerimeter=0;" edge="1" parent="1" source="J-O4yul9uTSDfZJT4Otk-123" target="J-O4yul9uTSDfZJT4Otk-32">
          <mxGeometry width="50" height="50" relative="1" as="geometry">
            <mxPoint x="590" y="280" as="sourcePoint" />
            <mxPoint x="640" y="230" as="targetPoint" />
          </mxGeometry>
        </mxCell>
        <mxCell id="J-O4yul9uTSDfZJT4Otk-126" value="" style="endArrow=none;html=1;rounded=0;exitX=1;exitY=0;exitDx=0;exitDy=0;entryX=0.4;entryY=1;entryDx=0;entryDy=0;entryPerimeter=0;" edge="1" parent="1" source="J-O4yul9uTSDfZJT4Otk-32" target="J-O4yul9uTSDfZJT4Otk-122">
          <mxGeometry width="50" height="50" relative="1" as="geometry">
            <mxPoint x="590" y="280" as="sourcePoint" />
            <mxPoint x="640" y="230" as="targetPoint" />
          </mxGeometry>
        </mxCell>
        <mxCell id="J-O4yul9uTSDfZJT4Otk-128" value="" style="endArrow=none;html=1;rounded=0;exitX=0.5;exitY=0;exitDx=0;exitDy=0;entryX=0.5;entryY=1;entryDx=0;entryDy=0;" edge="1" parent="1" source="J-O4yul9uTSDfZJT4Otk-32" target="J-O4yul9uTSDfZJT4Otk-121">
          <mxGeometry width="50" height="50" relative="1" as="geometry">
            <mxPoint x="590" y="280" as="sourcePoint" />
            <mxPoint x="640" y="230" as="targetPoint" />
          </mxGeometry>
        </mxCell>
        <mxCell id="J-O4yul9uTSDfZJT4Otk-129" value="user_id" style="ellipse;whiteSpace=wrap;html=1;fillColor=#f8cecc;gradientColor=#ea6b66;strokeColor=#b85450;" vertex="1" parent="1">
          <mxGeometry x="710" y="220" width="100" height="40" as="geometry" />
        </mxCell>
        <mxCell id="J-O4yul9uTSDfZJT4Otk-130" value="size_id" style="ellipse;whiteSpace=wrap;html=1;fillColor=#f8cecc;gradientColor=#ea6b66;strokeColor=#b85450;" vertex="1" parent="1">
          <mxGeometry x="770" y="170" width="100" height="40" as="geometry" />
        </mxCell>
        <mxCell id="J-O4yul9uTSDfZJT4Otk-131" value="guage" style="ellipse;whiteSpace=wrap;html=1;fillColor=#f8cecc;gradientColor=#ea6b66;strokeColor=#b85450;" vertex="1" parent="1">
          <mxGeometry x="470" y="140" width="100" height="40" as="geometry" />
        </mxCell>
        <mxCell id="J-O4yul9uTSDfZJT4Otk-132" value="rate" style="ellipse;whiteSpace=wrap;html=1;fillColor=#f8cecc;gradientColor=#ea6b66;strokeColor=#b85450;" vertex="1" parent="1">
          <mxGeometry x="510" y="200" width="100" height="40" as="geometry" />
        </mxCell>
        <mxCell id="J-O4yul9uTSDfZJT4Otk-133" value="&lt;u&gt;id&lt;/u&gt;" style="ellipse;whiteSpace=wrap;html=1;fillColor=#f8cecc;gradientColor=#ea6b66;strokeColor=#b85450;" vertex="1" parent="1">
          <mxGeometry x="600" y="230" width="100" height="40" as="geometry" />
        </mxCell>
        <mxCell id="J-O4yul9uTSDfZJT4Otk-134" value="" style="endArrow=none;html=1;rounded=0;entryX=0.616;entryY=1.069;entryDx=0;entryDy=0;entryPerimeter=0;" edge="1" parent="1" source="J-O4yul9uTSDfZJT4Otk-129" target="J-O4yul9uTSDfZJT4Otk-40">
          <mxGeometry width="50" height="50" relative="1" as="geometry">
            <mxPoint x="690" y="280" as="sourcePoint" />
            <mxPoint x="740" y="230" as="targetPoint" />
          </mxGeometry>
        </mxCell>
        <mxCell id="J-O4yul9uTSDfZJT4Otk-135" value="" style="endArrow=none;html=1;rounded=0;entryX=0.5;entryY=1;entryDx=0;entryDy=0;exitX=0.5;exitY=0;exitDx=0;exitDy=0;" edge="1" parent="1" source="J-O4yul9uTSDfZJT4Otk-133" target="J-O4yul9uTSDfZJT4Otk-40">
          <mxGeometry width="50" height="50" relative="1" as="geometry">
            <mxPoint x="690" y="280" as="sourcePoint" />
            <mxPoint x="740" y="230" as="targetPoint" />
          </mxGeometry>
        </mxCell>
        <mxCell id="J-O4yul9uTSDfZJT4Otk-136" value="" style="endArrow=none;html=1;rounded=0;entryX=0;entryY=0.5;entryDx=0;entryDy=0;exitX=1;exitY=1;exitDx=0;exitDy=0;" edge="1" parent="1" source="J-O4yul9uTSDfZJT4Otk-40" target="J-O4yul9uTSDfZJT4Otk-130">
          <mxGeometry width="50" height="50" relative="1" as="geometry">
            <mxPoint x="690" y="280" as="sourcePoint" />
            <mxPoint x="740" y="230" as="targetPoint" />
          </mxGeometry>
        </mxCell>
        <mxCell id="J-O4yul9uTSDfZJT4Otk-137" value="" style="endArrow=none;html=1;rounded=0;entryX=0.139;entryY=1.069;entryDx=0;entryDy=0;entryPerimeter=0;" edge="1" parent="1" source="J-O4yul9uTSDfZJT4Otk-132" target="J-O4yul9uTSDfZJT4Otk-40">
          <mxGeometry width="50" height="50" relative="1" as="geometry">
            <mxPoint x="690" y="280" as="sourcePoint" />
            <mxPoint x="740" y="230" as="targetPoint" />
          </mxGeometry>
        </mxCell>
        <mxCell id="J-O4yul9uTSDfZJT4Otk-138" value="" style="endArrow=none;html=1;rounded=0;entryX=0;entryY=1;entryDx=0;entryDy=0;exitX=1;exitY=0.5;exitDx=0;exitDy=0;" edge="1" parent="1" source="J-O4yul9uTSDfZJT4Otk-131" target="J-O4yul9uTSDfZJT4Otk-40">
          <mxGeometry width="50" height="50" relative="1" as="geometry">
            <mxPoint x="690" y="280" as="sourcePoint" />
            <mxPoint x="740" y="230" as="targetPoint" />
          </mxGeometry>
        </mxCell>
        <mxCell id="J-O4yul9uTSDfZJT4Otk-139" value="&lt;u&gt;id&lt;/u&gt;" style="ellipse;whiteSpace=wrap;html=1;fillColor=#f8cecc;gradientColor=#ea6b66;strokeColor=#b85450;" vertex="1" parent="1">
          <mxGeometry x="190" y="390" width="100" height="40" as="geometry" />
        </mxCell>
        <mxCell id="J-O4yul9uTSDfZJT4Otk-140" value="emp_id" style="ellipse;whiteSpace=wrap;html=1;fillColor=#f8cecc;gradientColor=#ea6b66;strokeColor=#b85450;" vertex="1" parent="1">
          <mxGeometry x="150" y="440" width="100" height="40" as="geometry" />
        </mxCell>
        <mxCell id="J-O4yul9uTSDfZJT4Otk-141" value="emp_wise_entry_id" style="ellipse;whiteSpace=wrap;html=1;fillColor=#f8cecc;gradientColor=#ea6b66;strokeColor=#b85450;fontColor=light-dark(#000000, #f2f2f2);" vertex="1" parent="1">
          <mxGeometry x="310" y="520" width="130" height="40" as="geometry" />
        </mxCell>
        <mxCell id="J-O4yul9uTSDfZJT4Otk-142" value="amount" style="ellipse;whiteSpace=wrap;html=1;fillColor=#f8cecc;gradientColor=#ea6b66;strokeColor=#b85450;" vertex="1" parent="1">
          <mxGeometry x="425" y="480" width="100" height="40" as="geometry" />
        </mxCell>
        <mxCell id="J-O4yul9uTSDfZJT4Otk-143" value="date" style="ellipse;whiteSpace=wrap;html=1;fillColor=#f8cecc;gradientColor=#ea6b66;strokeColor=#b85450;" vertex="1" parent="1">
          <mxGeometry x="310" y="385" width="100" height="40" as="geometry" />
        </mxCell>
        <mxCell id="J-O4yul9uTSDfZJT4Otk-144" value="description" style="ellipse;whiteSpace=wrap;html=1;fillColor=#f8cecc;gradientColor=#ea6b66;strokeColor=#b85450;" vertex="1" parent="1">
          <mxGeometry x="200" y="500" width="100" height="40" as="geometry" />
        </mxCell>
        <mxCell id="J-O4yul9uTSDfZJT4Otk-145" value="" style="endArrow=none;html=1;rounded=0;entryX=1;entryY=1;entryDx=0;entryDy=0;" edge="1" parent="1" source="J-O4yul9uTSDfZJT4Otk-142" target="J-O4yul9uTSDfZJT4Otk-56">
          <mxGeometry width="50" height="50" relative="1" as="geometry">
            <mxPoint x="690" y="480" as="sourcePoint" />
            <mxPoint x="740" y="430" as="targetPoint" />
          </mxGeometry>
        </mxCell>
        <mxCell id="J-O4yul9uTSDfZJT4Otk-146" value="" style="endArrow=none;html=1;rounded=0;exitX=0.444;exitY=0.069;exitDx=0;exitDy=0;exitPerimeter=0;entryX=0.627;entryY=1.069;entryDx=0;entryDy=0;entryPerimeter=0;" edge="1" parent="1" source="J-O4yul9uTSDfZJT4Otk-141" target="J-O4yul9uTSDfZJT4Otk-56">
          <mxGeometry width="50" height="50" relative="1" as="geometry">
            <mxPoint x="690" y="480" as="sourcePoint" />
            <mxPoint x="740" y="430" as="targetPoint" />
          </mxGeometry>
        </mxCell>
        <mxCell id="J-O4yul9uTSDfZJT4Otk-147" value="" style="endArrow=none;html=1;rounded=0;exitX=0.127;exitY=1.069;exitDx=0;exitDy=0;exitPerimeter=0;entryX=1;entryY=0;entryDx=0;entryDy=0;" edge="1" parent="1" source="J-O4yul9uTSDfZJT4Otk-56" target="J-O4yul9uTSDfZJT4Otk-144">
          <mxGeometry width="50" height="50" relative="1" as="geometry">
            <mxPoint x="420" y="640" as="sourcePoint" />
            <mxPoint x="417" y="600" as="targetPoint" />
          </mxGeometry>
        </mxCell>
        <mxCell id="J-O4yul9uTSDfZJT4Otk-148" value="" style="endArrow=none;html=1;rounded=0;exitX=1;exitY=0.5;exitDx=0;exitDy=0;entryX=0;entryY=0.75;entryDx=0;entryDy=0;" edge="1" parent="1" source="J-O4yul9uTSDfZJT4Otk-140" target="J-O4yul9uTSDfZJT4Otk-56">
          <mxGeometry width="50" height="50" relative="1" as="geometry">
            <mxPoint x="550" y="620" as="sourcePoint" />
            <mxPoint x="547" y="580" as="targetPoint" />
          </mxGeometry>
        </mxCell>
        <mxCell id="J-O4yul9uTSDfZJT4Otk-149" value="" style="endArrow=none;html=1;rounded=0;exitX=0;exitY=0;exitDx=0;exitDy=0;entryX=1;entryY=1;entryDx=0;entryDy=0;" edge="1" parent="1" source="J-O4yul9uTSDfZJT4Otk-56" target="J-O4yul9uTSDfZJT4Otk-139">
          <mxGeometry width="50" height="50" relative="1" as="geometry">
            <mxPoint x="570" y="580" as="sourcePoint" />
            <mxPoint x="567" y="540" as="targetPoint" />
          </mxGeometry>
        </mxCell>
        <mxCell id="J-O4yul9uTSDfZJT4Otk-150" value="" style="endArrow=none;html=1;rounded=0;exitX=0.5;exitY=0;exitDx=0;exitDy=0;entryX=0.5;entryY=1;entryDx=0;entryDy=0;" edge="1" parent="1" source="J-O4yul9uTSDfZJT4Otk-56" target="J-O4yul9uTSDfZJT4Otk-143">
          <mxGeometry width="50" height="50" relative="1" as="geometry">
            <mxPoint x="610" y="570" as="sourcePoint" />
            <mxPoint x="607" y="530" as="targetPoint" />
          </mxGeometry>
        </mxCell>
        <mxCell id="J-O4yul9uTSDfZJT4Otk-153" value="&lt;u&gt;id&lt;/u&gt;" style="ellipse;whiteSpace=wrap;html=1;fillColor=#f8cecc;gradientColor=#ea6b66;strokeColor=#b85450;" vertex="1" parent="1">
          <mxGeometry x="960" y="10" width="100" height="40" as="geometry" />
        </mxCell>
        <mxCell id="J-O4yul9uTSDfZJT4Otk-154" value="username" style="ellipse;whiteSpace=wrap;html=1;fillColor=#f8cecc;gradientColor=#ea6b66;strokeColor=#b85450;" vertex="1" parent="1">
          <mxGeometry x="1175" y="20" width="100" height="40" as="geometry" />
        </mxCell>
        <mxCell id="J-O4yul9uTSDfZJT4Otk-155" value="password" style="ellipse;whiteSpace=wrap;html=1;fillColor=#f8cecc;gradientColor=#ea6b66;strokeColor=#b85450;" vertex="1" parent="1">
          <mxGeometry x="1170" y="70" width="100" height="40" as="geometry" />
        </mxCell>
        <mxCell id="J-O4yul9uTSDfZJT4Otk-156" value="email" style="ellipse;whiteSpace=wrap;html=1;fillColor=#f8cecc;gradientColor=#ea6b66;strokeColor=#b85450;" vertex="1" parent="1">
          <mxGeometry x="1140" y="130" width="100" height="40" as="geometry" />
        </mxCell>
        <mxCell id="J-O4yul9uTSDfZJT4Otk-157" value="phone_no" style="ellipse;whiteSpace=wrap;html=1;fillColor=#f8cecc;gradientColor=#ea6b66;strokeColor=#b85450;" vertex="1" parent="1">
          <mxGeometry x="1140" y="180" width="100" height="40" as="geometry" />
        </mxCell>
        <mxCell id="J-O4yul9uTSDfZJT4Otk-158" value="join_date" style="ellipse;whiteSpace=wrap;html=1;fillColor=#f8cecc;gradientColor=#ea6b66;strokeColor=#b85450;" vertex="1" parent="1">
          <mxGeometry x="1140" y="240" width="100" height="40" as="geometry" />
        </mxCell>
        <mxCell id="J-O4yul9uTSDfZJT4Otk-159" value="address" style="ellipse;whiteSpace=wrap;html=1;fillColor=#f8cecc;gradientColor=#ea6b66;strokeColor=#b85450;" vertex="1" parent="1">
          <mxGeometry x="1070" y="10" width="100" height="40" as="geometry" />
        </mxCell>
        <mxCell id="J-O4yul9uTSDfZJT4Otk-160" value="isVerify" style="ellipse;whiteSpace=wrap;html=1;fillColor=#f8cecc;gradientColor=#ea6b66;strokeColor=#b85450;" vertex="1" parent="1">
          <mxGeometry x="1140" y="300" width="100" height="40" as="geometry" />
        </mxCell>
        <mxCell id="J-O4yul9uTSDfZJT4Otk-162" value="" style="endArrow=none;html=1;rounded=0;entryX=0.75;entryY=0;entryDx=0;entryDy=0;exitX=0;exitY=0;exitDx=0;exitDy=0;" edge="1" parent="1" source="J-O4yul9uTSDfZJT4Otk-157" target="J-O4yul9uTSDfZJT4Otk-119">
          <mxGeometry width="50" height="50" relative="1" as="geometry">
            <mxPoint x="1270" y="245" as="sourcePoint" />
            <mxPoint x="1320" y="195" as="targetPoint" />
          </mxGeometry>
        </mxCell>
        <mxCell id="J-O4yul9uTSDfZJT4Otk-163" value="" style="endArrow=none;html=1;rounded=0;entryX=0.75;entryY=0;entryDx=0;entryDy=0;exitX=0;exitY=0;exitDx=0;exitDy=0;" edge="1" parent="1" source="J-O4yul9uTSDfZJT4Otk-158" target="J-O4yul9uTSDfZJT4Otk-119">
          <mxGeometry width="50" height="50" relative="1" as="geometry">
            <mxPoint x="1310" y="430" as="sourcePoint" />
            <mxPoint x="1360" y="380" as="targetPoint" />
          </mxGeometry>
        </mxCell>
        <mxCell id="J-O4yul9uTSDfZJT4Otk-164" value="" style="endArrow=none;html=1;rounded=0;exitX=0;exitY=0;exitDx=0;exitDy=0;entryX=0.75;entryY=0;entryDx=0;entryDy=0;" edge="1" parent="1" source="J-O4yul9uTSDfZJT4Otk-160" target="J-O4yul9uTSDfZJT4Otk-119">
          <mxGeometry width="50" height="50" relative="1" as="geometry">
            <mxPoint x="1400" y="410" as="sourcePoint" />
            <mxPoint x="1450" y="360" as="targetPoint" />
          </mxGeometry>
        </mxCell>
        <mxCell id="J-O4yul9uTSDfZJT4Otk-165" value="" style="endArrow=none;html=1;rounded=0;entryX=0.25;entryY=1;entryDx=0;entryDy=0;exitX=0;exitY=0.5;exitDx=0;exitDy=0;" edge="1" parent="1" source="J-O4yul9uTSDfZJT4Otk-156" target="J-O4yul9uTSDfZJT4Otk-82">
          <mxGeometry width="50" height="50" relative="1" as="geometry">
            <mxPoint x="1330" y="390" as="sourcePoint" />
            <mxPoint x="1380" y="340" as="targetPoint" />
          </mxGeometry>
        </mxCell>
        <mxCell id="J-O4yul9uTSDfZJT4Otk-166" value="" style="endArrow=none;html=1;rounded=0;entryX=0;entryY=0.5;entryDx=0;entryDy=0;exitX=0.25;exitY=0;exitDx=0;exitDy=0;" edge="1" parent="1" source="J-O4yul9uTSDfZJT4Otk-82" target="J-O4yul9uTSDfZJT4Otk-155">
          <mxGeometry width="50" height="50" relative="1" as="geometry">
            <mxPoint x="1350" y="350" as="sourcePoint" />
            <mxPoint x="1400" y="300" as="targetPoint" />
          </mxGeometry>
        </mxCell>
        <mxCell id="J-O4yul9uTSDfZJT4Otk-167" value="" style="endArrow=none;html=1;rounded=0;entryX=0;entryY=0.5;entryDx=0;entryDy=0;exitX=0.75;exitY=0;exitDx=0;exitDy=0;" edge="1" parent="1" source="J-O4yul9uTSDfZJT4Otk-46" target="J-O4yul9uTSDfZJT4Otk-154">
          <mxGeometry width="50" height="50" relative="1" as="geometry">
            <mxPoint x="1350" y="420" as="sourcePoint" />
            <mxPoint x="1400" y="370" as="targetPoint" />
          </mxGeometry>
        </mxCell>
        <mxCell id="J-O4yul9uTSDfZJT4Otk-168" value="" style="endArrow=none;html=1;rounded=0;entryX=0.252;entryY=0.912;entryDx=0;entryDy=0;entryPerimeter=0;" edge="1" parent="1" source="J-O4yul9uTSDfZJT4Otk-46" target="J-O4yul9uTSDfZJT4Otk-159">
          <mxGeometry width="50" height="50" relative="1" as="geometry">
            <mxPoint x="1400" y="430" as="sourcePoint" />
            <mxPoint x="1450" y="380" as="targetPoint" />
          </mxGeometry>
        </mxCell>
        <mxCell id="J-O4yul9uTSDfZJT4Otk-169" value="" style="endArrow=none;html=1;rounded=0;entryX=0.777;entryY=0.975;entryDx=0;entryDy=0;entryPerimeter=0;exitX=0.585;exitY=-0.056;exitDx=0;exitDy=0;exitPerimeter=0;" edge="1" parent="1" source="J-O4yul9uTSDfZJT4Otk-46" target="J-O4yul9uTSDfZJT4Otk-153">
          <mxGeometry width="50" height="50" relative="1" as="geometry">
            <mxPoint x="1420" y="440" as="sourcePoint" />
            <mxPoint x="1470" y="390" as="targetPoint" />
          </mxGeometry>
        </mxCell>
        <mxCell id="J-O4yul9uTSDfZJT4Otk-170" value="&lt;u&gt;id&lt;/u&gt;" style="ellipse;whiteSpace=wrap;html=1;fillColor=#f8cecc;gradientColor=#ea6b66;strokeColor=#b85450;" vertex="1" parent="1">
          <mxGeometry x="840" y="400" width="100" height="40" as="geometry" />
        </mxCell>
        <mxCell id="J-O4yul9uTSDfZJT4Otk-171" value="name" style="ellipse;whiteSpace=wrap;html=1;fillColor=#f8cecc;gradientColor=#ea6b66;strokeColor=#b85450;" vertex="1" parent="1">
          <mxGeometry x="720" y="425" width="100" height="40" as="geometry" />
        </mxCell>
        <mxCell id="J-O4yul9uTSDfZJT4Otk-172" value="address" style="ellipse;whiteSpace=wrap;html=1;fillColor=#f8cecc;gradientColor=#ea6b66;strokeColor=#b85450;" vertex="1" parent="1">
          <mxGeometry x="670" y="685" width="100" height="40" as="geometry" />
        </mxCell>
        <mxCell id="J-O4yul9uTSDfZJT4Otk-173" value="mobile_no" style="ellipse;whiteSpace=wrap;html=1;fillColor=#f8cecc;gradientColor=#ea6b66;strokeColor=#b85450;" vertex="1" parent="1">
          <mxGeometry x="560" y="675" width="100" height="40" as="geometry" />
        </mxCell>
        <mxCell id="J-O4yul9uTSDfZJT4Otk-174" value="email" style="ellipse;whiteSpace=wrap;html=1;fillColor=#f8cecc;gradientColor=#ea6b66;strokeColor=#b85450;" vertex="1" parent="1">
          <mxGeometry x="790" y="690" width="100" height="40" as="geometry" />
        </mxCell>
        <mxCell id="J-O4yul9uTSDfZJT4Otk-175" value="gender" style="ellipse;whiteSpace=wrap;html=1;fillColor=#f8cecc;gradientColor=#ea6b66;strokeColor=#b85450;" vertex="1" parent="1">
          <mxGeometry x="485" y="570" width="100" height="40" as="geometry" />
        </mxCell>
        <mxCell id="J-O4yul9uTSDfZJT4Otk-176" value="working_status" style="ellipse;whiteSpace=wrap;html=1;fillColor=#f8cecc;gradientColor=#ea6b66;strokeColor=#b85450;" vertex="1" parent="1">
          <mxGeometry x="480" y="635" width="100" height="40" as="geometry" />
        </mxCell>
        <mxCell id="J-O4yul9uTSDfZJT4Otk-177" value="created_at" style="ellipse;whiteSpace=wrap;html=1;fillColor=#f8cecc;gradientColor=#ea6b66;strokeColor=#b85450;" vertex="1" parent="1">
          <mxGeometry x="910" y="700" width="100" height="40" as="geometry" />
        </mxCell>
        <mxCell id="J-O4yul9uTSDfZJT4Otk-178" value="updated_at" style="ellipse;whiteSpace=wrap;html=1;fillColor=#f8cecc;gradientColor=#ea6b66;strokeColor=#b85450;" vertex="1" parent="1">
          <mxGeometry x="570" y="520" width="100" height="40" as="geometry" />
        </mxCell>
        <mxCell id="J-O4yul9uTSDfZJT4Otk-179" value="user_id" style="ellipse;whiteSpace=wrap;html=1;fillColor=#f8cecc;gradientColor=#ea6b66;strokeColor=#b85450;" vertex="1" parent="1">
          <mxGeometry x="650" y="480" width="100" height="40" as="geometry" />
        </mxCell>
        <mxCell id="J-O4yul9uTSDfZJT4Otk-181" value="" style="endArrow=none;html=1;rounded=0;entryX=0;entryY=0.75;entryDx=0;entryDy=0;exitX=1;exitY=0.5;exitDx=0;exitDy=0;" edge="1" parent="1" source="J-O4yul9uTSDfZJT4Otk-170" target="J-O4yul9uTSDfZJT4Otk-57">
          <mxGeometry width="50" height="50" relative="1" as="geometry">
            <mxPoint x="710" y="660" as="sourcePoint" />
            <mxPoint x="820" y="570" as="targetPoint" />
          </mxGeometry>
        </mxCell>
        <mxCell id="J-O4yul9uTSDfZJT4Otk-183" value="" style="endArrow=none;html=1;rounded=0;entryX=0;entryY=0.75;entryDx=0;entryDy=0;exitX=1;exitY=0.5;exitDx=0;exitDy=0;" edge="1" parent="1" source="J-O4yul9uTSDfZJT4Otk-171" target="J-O4yul9uTSDfZJT4Otk-57">
          <mxGeometry width="50" height="50" relative="1" as="geometry">
            <mxPoint x="760" y="630" as="sourcePoint" />
            <mxPoint x="810" y="580" as="targetPoint" />
          </mxGeometry>
        </mxCell>
        <mxCell id="J-O4yul9uTSDfZJT4Otk-184" value="" style="endArrow=none;html=1;rounded=0;exitX=1;exitY=0.5;exitDx=0;exitDy=0;" edge="1" parent="1" source="J-O4yul9uTSDfZJT4Otk-179">
          <mxGeometry width="50" height="50" relative="1" as="geometry">
            <mxPoint x="840" y="540" as="sourcePoint" />
            <mxPoint x="960" y="470" as="targetPoint" />
          </mxGeometry>
        </mxCell>
        <mxCell id="J-O4yul9uTSDfZJT4Otk-185" value="" style="endArrow=none;html=1;rounded=0;entryX=0;entryY=1;entryDx=0;entryDy=0;exitX=1;exitY=0.5;exitDx=0;exitDy=0;" edge="1" parent="1" source="J-O4yul9uTSDfZJT4Otk-178" target="J-O4yul9uTSDfZJT4Otk-57">
          <mxGeometry width="50" height="50" relative="1" as="geometry">
            <mxPoint x="790" y="540" as="sourcePoint" />
            <mxPoint x="840" y="490" as="targetPoint" />
          </mxGeometry>
        </mxCell>
        <mxCell id="J-O4yul9uTSDfZJT4Otk-186" value="" style="endArrow=none;html=1;rounded=0;entryX=0;entryY=1;entryDx=0;entryDy=0;exitX=1;exitY=0.5;exitDx=0;exitDy=0;" edge="1" parent="1" source="J-O4yul9uTSDfZJT4Otk-175" target="J-O4yul9uTSDfZJT4Otk-57">
          <mxGeometry width="50" height="50" relative="1" as="geometry">
            <mxPoint x="860" y="580" as="sourcePoint" />
            <mxPoint x="910" y="530" as="targetPoint" />
          </mxGeometry>
        </mxCell>
        <mxCell id="J-O4yul9uTSDfZJT4Otk-187" value="" style="endArrow=none;html=1;rounded=0;entryX=0;entryY=1;entryDx=0;entryDy=0;exitX=0.94;exitY=0.162;exitDx=0;exitDy=0;exitPerimeter=0;" edge="1" parent="1" source="J-O4yul9uTSDfZJT4Otk-176" target="J-O4yul9uTSDfZJT4Otk-57">
          <mxGeometry width="50" height="50" relative="1" as="geometry">
            <mxPoint x="820" y="610" as="sourcePoint" />
            <mxPoint x="870" y="560" as="targetPoint" />
          </mxGeometry>
        </mxCell>
        <mxCell id="J-O4yul9uTSDfZJT4Otk-188" value="" style="endArrow=none;html=1;rounded=0;entryX=0;entryY=1;entryDx=0;entryDy=0;exitX=0.7;exitY=0.125;exitDx=0;exitDy=0;exitPerimeter=0;" edge="1" parent="1" source="J-O4yul9uTSDfZJT4Otk-173" target="J-O4yul9uTSDfZJT4Otk-57">
          <mxGeometry width="50" height="50" relative="1" as="geometry">
            <mxPoint x="830" y="640" as="sourcePoint" />
            <mxPoint x="880" y="590" as="targetPoint" />
          </mxGeometry>
        </mxCell>
        <mxCell id="J-O4yul9uTSDfZJT4Otk-189" value="" style="endArrow=none;html=1;rounded=0;entryX=0;entryY=0;entryDx=0;entryDy=0;exitX=0.615;exitY=0.037;exitDx=0;exitDy=0;exitPerimeter=0;" edge="1" parent="1" source="J-O4yul9uTSDfZJT4Otk-172" target="J-O4yul9uTSDfZJT4Otk-72">
          <mxGeometry width="50" height="50" relative="1" as="geometry">
            <mxPoint x="860" y="630" as="sourcePoint" />
            <mxPoint x="910" y="580" as="targetPoint" />
          </mxGeometry>
        </mxCell>
        <mxCell id="J-O4yul9uTSDfZJT4Otk-190" value="" style="endArrow=none;html=1;rounded=0;entryX=0.25;entryY=0;entryDx=0;entryDy=0;exitX=0.415;exitY=0.006;exitDx=0;exitDy=0;exitPerimeter=0;" edge="1" parent="1" source="J-O4yul9uTSDfZJT4Otk-174" target="J-O4yul9uTSDfZJT4Otk-72">
          <mxGeometry width="50" height="50" relative="1" as="geometry">
            <mxPoint x="900" y="650" as="sourcePoint" />
            <mxPoint x="950" y="600" as="targetPoint" />
          </mxGeometry>
        </mxCell>
        <mxCell id="J-O4yul9uTSDfZJT4Otk-191" value="" style="endArrow=none;html=1;rounded=0;entryX=0.25;entryY=0;entryDx=0;entryDy=0;exitX=0.352;exitY=-0.056;exitDx=0;exitDy=0;exitPerimeter=0;" edge="1" parent="1" source="J-O4yul9uTSDfZJT4Otk-177" target="J-O4yul9uTSDfZJT4Otk-72">
          <mxGeometry width="50" height="50" relative="1" as="geometry">
            <mxPoint x="920" y="670" as="sourcePoint" />
            <mxPoint x="970" y="620" as="targetPoint" />
          </mxGeometry>
        </mxCell>
        <mxCell id="J-O4yul9uTSDfZJT4Otk-192" value="&lt;u&gt;id&lt;/u&gt;" style="ellipse;whiteSpace=wrap;html=1;fillColor=#f8cecc;gradientColor=#ea6b66;strokeColor=#b85450;" vertex="1" parent="1">
          <mxGeometry x="180" y="610" width="100" height="40" as="geometry" />
        </mxCell>
        <mxCell id="J-O4yul9uTSDfZJT4Otk-193" value="status" style="ellipse;whiteSpace=wrap;html=1;fillColor=#f8cecc;gradientColor=#ea6b66;strokeColor=#b85450;" vertex="1" parent="1">
          <mxGeometry x="270" y="640" width="100" height="40" as="geometry" />
        </mxCell>
        <mxCell id="J-O4yul9uTSDfZJT4Otk-194" value="payment_state" style="ellipse;whiteSpace=wrap;html=1;fillColor=#f8cecc;gradientColor=#ea6b66;strokeColor=#b85450;" vertex="1" parent="1">
          <mxGeometry x="300" y="700" width="100" height="40" as="geometry" />
        </mxCell>
        <mxCell id="J-O4yul9uTSDfZJT4Otk-195" value="description" style="ellipse;whiteSpace=wrap;html=1;fillColor=#f8cecc;gradientColor=#ea6b66;strokeColor=#b85450;" vertex="1" parent="1">
          <mxGeometry x="50" y="610" width="100" height="40" as="geometry" />
        </mxCell>
        <mxCell id="J-O4yul9uTSDfZJT4Otk-196" value="amount" style="ellipse;whiteSpace=wrap;html=1;fillColor=#f8cecc;gradientColor=#ea6b66;strokeColor=#b85450;" vertex="1" parent="1">
          <mxGeometry x="10" y="670" width="100" height="40" as="geometry" />
        </mxCell>
        <mxCell id="J-O4yul9uTSDfZJT4Otk-197" value="user_id" style="ellipse;whiteSpace=wrap;html=1;fillColor=#f8cecc;gradientColor=#ea6b66;strokeColor=#b85450;" vertex="1" parent="1">
          <mxGeometry x="10" y="730" width="100" height="40" as="geometry" />
        </mxCell>
        <mxCell id="J-O4yul9uTSDfZJT4Otk-198" value="emp_id" style="ellipse;whiteSpace=wrap;html=1;fillColor=#f8cecc;gradientColor=#ea6b66;strokeColor=#b85450;" vertex="1" parent="1">
          <mxGeometry x="10" y="785" width="100" height="40" as="geometry" />
        </mxCell>
        <mxCell id="J-O4yul9uTSDfZJT4Otk-199" value="date" style="ellipse;whiteSpace=wrap;html=1;fillColor=#f8cecc;gradientColor=#ea6b66;strokeColor=#b85450;" vertex="1" parent="1">
          <mxGeometry x="10" y="850" width="100" height="40" as="geometry" />
        </mxCell>
        <mxCell id="J-O4yul9uTSDfZJT4Otk-200" value="created_at" style="ellipse;whiteSpace=wrap;html=1;fillColor=#f8cecc;gradientColor=#ea6b66;strokeColor=#b85450;" vertex="1" parent="1">
          <mxGeometry x="80" y="895" width="100" height="40" as="geometry" />
        </mxCell>
        <mxCell id="J-O4yul9uTSDfZJT4Otk-201" value="updated_at" style="ellipse;whiteSpace=wrap;html=1;fillColor=#f8cecc;gradientColor=#ea6b66;strokeColor=#b85450;" vertex="1" parent="1">
          <mxGeometry x="300" y="775" width="100" height="40" as="geometry" />
        </mxCell>
        <mxCell id="J-O4yul9uTSDfZJT4Otk-202" value="receipt_voucher_no" style="ellipse;whiteSpace=wrap;html=1;fillColor=#f8cecc;gradientColor=#ea6b66;strokeColor=#b85450;" vertex="1" parent="1">
          <mxGeometry x="210" y="890" width="120" height="40" as="geometry" />
        </mxCell>
        <mxCell id="J-O4yul9uTSDfZJT4Otk-203" value="salaries_id" style="ellipse;whiteSpace=wrap;html=1;fillColor=#f8cecc;gradientColor=#ea6b66;strokeColor=#b85450;" vertex="1" parent="1">
          <mxGeometry x="300" y="830" width="100" height="40" as="geometry" />
        </mxCell>
        <mxCell id="J-O4yul9uTSDfZJT4Otk-204" value="" style="endArrow=none;html=1;rounded=0;entryX=0.627;entryY=0.069;entryDx=0;entryDy=0;entryPerimeter=0;exitX=0.4;exitY=1;exitDx=0;exitDy=0;exitPerimeter=0;" edge="1" parent="1" source="J-O4yul9uTSDfZJT4Otk-192" target="J-O4yul9uTSDfZJT4Otk-68">
          <mxGeometry width="50" height="50" relative="1" as="geometry">
            <mxPoint x="500" y="690" as="sourcePoint" />
            <mxPoint x="550" y="640" as="targetPoint" />
          </mxGeometry>
        </mxCell>
        <mxCell id="J-O4yul9uTSDfZJT4Otk-205" value="" style="endArrow=none;html=1;rounded=0;exitX=0.065;exitY=0.756;exitDx=0;exitDy=0;exitPerimeter=0;" edge="1" parent="1" source="J-O4yul9uTSDfZJT4Otk-193">
          <mxGeometry width="50" height="50" relative="1" as="geometry">
            <mxPoint x="480" y="890" as="sourcePoint" />
            <mxPoint x="210" y="750" as="targetPoint" />
          </mxGeometry>
        </mxCell>
        <mxCell id="J-O4yul9uTSDfZJT4Otk-206" value="" style="endArrow=none;html=1;rounded=0;entryX=0.333;entryY=0.333;entryDx=0;entryDy=0;entryPerimeter=0;exitX=0;exitY=0.5;exitDx=0;exitDy=0;" edge="1" parent="1" source="J-O4yul9uTSDfZJT4Otk-194" target="J-O4yul9uTSDfZJT4Otk-73">
          <mxGeometry width="50" height="50" relative="1" as="geometry">
            <mxPoint x="480" y="910" as="sourcePoint" />
            <mxPoint x="455" y="1008" as="targetPoint" />
          </mxGeometry>
        </mxCell>
        <mxCell id="J-O4yul9uTSDfZJT4Otk-207" value="" style="endArrow=none;html=1;rounded=0;entryX=0;entryY=0.5;entryDx=0;entryDy=0;exitX=1;exitY=0.75;exitDx=0;exitDy=0;" edge="1" parent="1" source="J-O4yul9uTSDfZJT4Otk-68" target="J-O4yul9uTSDfZJT4Otk-201">
          <mxGeometry width="50" height="50" relative="1" as="geometry">
            <mxPoint x="510" y="990" as="sourcePoint" />
            <mxPoint x="485" y="1088" as="targetPoint" />
          </mxGeometry>
        </mxCell>
        <mxCell id="J-O4yul9uTSDfZJT4Otk-208" value="" style="endArrow=none;html=1;rounded=0;entryX=0;entryY=0.5;entryDx=0;entryDy=0;exitX=1;exitY=1;exitDx=0;exitDy=0;" edge="1" parent="1" source="J-O4yul9uTSDfZJT4Otk-68" target="J-O4yul9uTSDfZJT4Otk-203">
          <mxGeometry width="50" height="50" relative="1" as="geometry">
            <mxPoint x="480" y="910" as="sourcePoint" />
            <mxPoint x="455" y="1008" as="targetPoint" />
          </mxGeometry>
        </mxCell>
        <mxCell id="J-O4yul9uTSDfZJT4Otk-209" value="" style="endArrow=none;html=1;rounded=0;exitX=0.75;exitY=0;exitDx=0;exitDy=0;" edge="1" parent="1" source="J-O4yul9uTSDfZJT4Otk-106" target="J-O4yul9uTSDfZJT4Otk-202">
          <mxGeometry width="50" height="50" relative="1" as="geometry">
            <mxPoint x="500" y="940" as="sourcePoint" />
            <mxPoint x="475" y="1038" as="targetPoint" />
          </mxGeometry>
        </mxCell>
        <mxCell id="J-O4yul9uTSDfZJT4Otk-210" value="" style="endArrow=none;html=1;rounded=0;entryX=0.7;entryY=0.125;entryDx=0;entryDy=0;entryPerimeter=0;exitX=0.356;exitY=1.006;exitDx=0;exitDy=0;exitPerimeter=0;" edge="1" parent="1" source="J-O4yul9uTSDfZJT4Otk-68" target="J-O4yul9uTSDfZJT4Otk-200">
          <mxGeometry width="50" height="50" relative="1" as="geometry">
            <mxPoint x="540" y="890" as="sourcePoint" />
            <mxPoint x="515" y="988" as="targetPoint" />
          </mxGeometry>
        </mxCell>
        <mxCell id="J-O4yul9uTSDfZJT4Otk-211" value="" style="endArrow=none;html=1;rounded=0;entryX=1;entryY=0.5;entryDx=0;entryDy=0;exitX=0.138;exitY=0.975;exitDx=0;exitDy=0;exitPerimeter=0;" edge="1" parent="1" source="J-O4yul9uTSDfZJT4Otk-68" target="J-O4yul9uTSDfZJT4Otk-199">
          <mxGeometry width="50" height="50" relative="1" as="geometry">
            <mxPoint x="480" y="890" as="sourcePoint" />
            <mxPoint x="455" y="988" as="targetPoint" />
          </mxGeometry>
        </mxCell>
        <mxCell id="J-O4yul9uTSDfZJT4Otk-212" value="" style="endArrow=none;html=1;rounded=0;entryX=0.978;entryY=0.319;entryDx=0;entryDy=0;entryPerimeter=0;exitX=0;exitY=1;exitDx=0;exitDy=0;" edge="1" parent="1" source="J-O4yul9uTSDfZJT4Otk-68" target="J-O4yul9uTSDfZJT4Otk-198">
          <mxGeometry width="50" height="50" relative="1" as="geometry">
            <mxPoint x="460" y="960" as="sourcePoint" />
            <mxPoint x="435" y="1058" as="targetPoint" />
          </mxGeometry>
        </mxCell>
        <mxCell id="J-O4yul9uTSDfZJT4Otk-213" value="" style="endArrow=none;html=1;rounded=0;entryX=0.953;entryY=0.756;entryDx=0;entryDy=0;entryPerimeter=0;exitX=0;exitY=0.25;exitDx=0;exitDy=0;" edge="1" parent="1" source="J-O4yul9uTSDfZJT4Otk-68" target="J-O4yul9uTSDfZJT4Otk-197">
          <mxGeometry width="50" height="50" relative="1" as="geometry">
            <mxPoint x="440" y="920" as="sourcePoint" />
            <mxPoint x="415" y="1018" as="targetPoint" />
          </mxGeometry>
        </mxCell>
        <mxCell id="J-O4yul9uTSDfZJT4Otk-214" value="" style="endArrow=none;html=1;rounded=0;entryX=0.127;entryY=-0.056;entryDx=0;entryDy=0;entryPerimeter=0;exitX=1;exitY=1;exitDx=0;exitDy=0;" edge="1" parent="1" source="J-O4yul9uTSDfZJT4Otk-195" target="J-O4yul9uTSDfZJT4Otk-68">
          <mxGeometry width="50" height="50" relative="1" as="geometry">
            <mxPoint x="430" y="900" as="sourcePoint" />
            <mxPoint x="405" y="998" as="targetPoint" />
          </mxGeometry>
        </mxCell>
        <mxCell id="J-O4yul9uTSDfZJT4Otk-215" value="" style="endArrow=none;html=1;rounded=0;entryX=0;entryY=0.25;entryDx=0;entryDy=0;exitX=1;exitY=1;exitDx=0;exitDy=0;" edge="1" parent="1" source="J-O4yul9uTSDfZJT4Otk-196" target="J-O4yul9uTSDfZJT4Otk-68">
          <mxGeometry width="50" height="50" relative="1" as="geometry">
            <mxPoint x="410" y="930" as="sourcePoint" />
            <mxPoint x="385" y="1028" as="targetPoint" />
          </mxGeometry>
        </mxCell>
        <mxCell id="J-O4yul9uTSDfZJT4Otk-216" value="&lt;u&gt;id&lt;/u&gt;" style="ellipse;whiteSpace=wrap;html=1;fillColor=#f8cecc;gradientColor=#ea6b66;strokeColor=#b85450;" vertex="1" parent="1">
          <mxGeometry x="810" y="785" width="100" height="40" as="geometry" />
        </mxCell>
        <mxCell id="J-O4yul9uTSDfZJT4Otk-217" value="emp_id" style="ellipse;whiteSpace=wrap;html=1;fillColor=#f8cecc;gradientColor=#ea6b66;strokeColor=#b85450;" vertex="1" parent="1">
          <mxGeometry x="700" y="785" width="100" height="40" as="geometry" />
        </mxCell>
        <mxCell id="J-O4yul9uTSDfZJT4Otk-218" value="no_of_hours" style="ellipse;whiteSpace=wrap;html=1;fillColor=#f8cecc;gradientColor=#ea6b66;strokeColor=#b85450;" vertex="1" parent="1">
          <mxGeometry x="610" y="815" width="100" height="40" as="geometry" />
        </mxCell>
        <mxCell id="J-O4yul9uTSDfZJT4Otk-219" value="date" style="ellipse;whiteSpace=wrap;html=1;fillColor=#f8cecc;gradientColor=#ea6b66;strokeColor=#b85450;" vertex="1" parent="1">
          <mxGeometry x="580" y="865" width="100" height="40" as="geometry" />
        </mxCell>
        <mxCell id="J-O4yul9uTSDfZJT4Otk-220" value="time" style="ellipse;whiteSpace=wrap;html=1;fillColor=#f8cecc;gradientColor=#ea6b66;strokeColor=#b85450;" vertex="1" parent="1">
          <mxGeometry x="600" y="930" width="100" height="40" as="geometry" />
        </mxCell>
        <mxCell id="J-O4yul9uTSDfZJT4Otk-221" value="description" style="ellipse;whiteSpace=wrap;html=1;fillColor=#f8cecc;gradientColor=#ea6b66;strokeColor=#b85450;" vertex="1" parent="1">
          <mxGeometry x="710" y="960" width="100" height="40" as="geometry" />
        </mxCell>
        <mxCell id="J-O4yul9uTSDfZJT4Otk-222" value="created_at" style="ellipse;whiteSpace=wrap;html=1;fillColor=#f8cecc;gradientColor=#ea6b66;strokeColor=#b85450;" vertex="1" parent="1">
          <mxGeometry x="830" y="960" width="100" height="40" as="geometry" />
        </mxCell>
        <mxCell id="J-O4yul9uTSDfZJT4Otk-223" value="updated_at" style="ellipse;whiteSpace=wrap;html=1;fillColor=#f8cecc;gradientColor=#ea6b66;strokeColor=#b85450;" vertex="1" parent="1">
          <mxGeometry x="940" y="940" width="100" height="40" as="geometry" />
        </mxCell>
        <mxCell id="J-O4yul9uTSDfZJT4Otk-224" value="emp_wise_entry_no" style="ellipse;whiteSpace=wrap;html=1;fillColor=#f8cecc;gradientColor=#ea6b66;strokeColor=#b85450;" vertex="1" parent="1">
          <mxGeometry x="900" y="820" width="130" height="40" as="geometry" />
        </mxCell>
        <mxCell id="J-O4yul9uTSDfZJT4Otk-225" value="" style="endArrow=none;html=1;rounded=0;entryX=0.012;entryY=0.788;entryDx=0;entryDy=0;entryPerimeter=0;" edge="1" parent="1" target="J-O4yul9uTSDfZJT4Otk-224">
          <mxGeometry width="50" height="50" relative="1" as="geometry">
            <mxPoint x="850" y="880" as="sourcePoint" />
            <mxPoint x="840" y="840" as="targetPoint" />
          </mxGeometry>
        </mxCell>
        <mxCell id="J-O4yul9uTSDfZJT4Otk-226" value="" style="endArrow=none;html=1;rounded=0;entryX=0.29;entryY=0.975;entryDx=0;entryDy=0;entryPerimeter=0;" edge="1" parent="1" source="J-O4yul9uTSDfZJT4Otk-107" target="J-O4yul9uTSDfZJT4Otk-216">
          <mxGeometry width="50" height="50" relative="1" as="geometry">
            <mxPoint x="490" y="930" as="sourcePoint" />
            <mxPoint x="542" y="902" as="targetPoint" />
          </mxGeometry>
        </mxCell>
        <mxCell id="J-O4yul9uTSDfZJT4Otk-227" value="" style="endArrow=none;html=1;rounded=0;entryX=0.602;entryY=0.975;entryDx=0;entryDy=0;entryPerimeter=0;exitX=0.333;exitY=0;exitDx=0;exitDy=0;exitPerimeter=0;" edge="1" parent="1" source="J-O4yul9uTSDfZJT4Otk-107" target="J-O4yul9uTSDfZJT4Otk-217">
          <mxGeometry width="50" height="50" relative="1" as="geometry">
            <mxPoint x="520" y="950" as="sourcePoint" />
            <mxPoint x="572" y="922" as="targetPoint" />
          </mxGeometry>
        </mxCell>
        <mxCell id="J-O4yul9uTSDfZJT4Otk-228" value="" style="endArrow=none;html=1;rounded=0;entryX=1;entryY=1;entryDx=0;entryDy=0;exitX=0;exitY=0;exitDx=0;exitDy=0;" edge="1" parent="1" source="J-O4yul9uTSDfZJT4Otk-107" target="J-O4yul9uTSDfZJT4Otk-218">
          <mxGeometry width="50" height="50" relative="1" as="geometry">
            <mxPoint x="520" y="980" as="sourcePoint" />
            <mxPoint x="572" y="952" as="targetPoint" />
          </mxGeometry>
        </mxCell>
        <mxCell id="J-O4yul9uTSDfZJT4Otk-229" value="" style="endArrow=none;html=1;rounded=0;entryX=0;entryY=0.5;entryDx=0;entryDy=0;exitX=1;exitY=0.5;exitDx=0;exitDy=0;" edge="1" parent="1" source="J-O4yul9uTSDfZJT4Otk-219" target="J-O4yul9uTSDfZJT4Otk-107">
          <mxGeometry width="50" height="50" relative="1" as="geometry">
            <mxPoint x="490" y="960" as="sourcePoint" />
            <mxPoint x="542" y="932" as="targetPoint" />
          </mxGeometry>
        </mxCell>
        <mxCell id="J-O4yul9uTSDfZJT4Otk-230" value="" style="endArrow=none;html=1;rounded=0;entryX=0;entryY=1;entryDx=0;entryDy=0;exitX=1;exitY=0;exitDx=0;exitDy=0;" edge="1" parent="1" source="J-O4yul9uTSDfZJT4Otk-220" target="J-O4yul9uTSDfZJT4Otk-107">
          <mxGeometry width="50" height="50" relative="1" as="geometry">
            <mxPoint x="470" y="950" as="sourcePoint" />
            <mxPoint x="522" y="922" as="targetPoint" />
          </mxGeometry>
        </mxCell>
        <mxCell id="J-O4yul9uTSDfZJT4Otk-231" value="" style="endArrow=none;html=1;rounded=0;entryX=0.377;entryY=1.03;entryDx=0;entryDy=0;entryPerimeter=0;exitX=0.5;exitY=0;exitDx=0;exitDy=0;" edge="1" parent="1" source="J-O4yul9uTSDfZJT4Otk-221" target="J-O4yul9uTSDfZJT4Otk-107">
          <mxGeometry width="50" height="50" relative="1" as="geometry">
            <mxPoint x="500" y="950" as="sourcePoint" />
            <mxPoint x="552" y="922" as="targetPoint" />
          </mxGeometry>
        </mxCell>
        <mxCell id="J-O4yul9uTSDfZJT4Otk-232" value="" style="endArrow=none;html=1;rounded=0;entryX=0.867;entryY=0.98;entryDx=0;entryDy=0;entryPerimeter=0;exitX=0.3;exitY=0;exitDx=0;exitDy=0;exitPerimeter=0;" edge="1" parent="1" source="J-O4yul9uTSDfZJT4Otk-222" target="J-O4yul9uTSDfZJT4Otk-107">
          <mxGeometry width="50" height="50" relative="1" as="geometry">
            <mxPoint x="470" y="970" as="sourcePoint" />
            <mxPoint x="522" y="942" as="targetPoint" />
          </mxGeometry>
        </mxCell>
        <mxCell id="J-O4yul9uTSDfZJT4Otk-233" value="" style="endArrow=none;html=1;rounded=0;entryX=1;entryY=1;entryDx=0;entryDy=0;exitX=0;exitY=0.5;exitDx=0;exitDy=0;" edge="1" parent="1" source="J-O4yul9uTSDfZJT4Otk-223" target="J-O4yul9uTSDfZJT4Otk-107">
          <mxGeometry width="50" height="50" relative="1" as="geometry">
            <mxPoint x="450" y="960" as="sourcePoint" />
            <mxPoint x="502" y="932" as="targetPoint" />
          </mxGeometry>
        </mxCell>
        <mxCell id="J-O4yul9uTSDfZJT4Otk-234" value="&lt;u&gt;id&lt;/u&gt;" style="ellipse;whiteSpace=wrap;html=1;fillColor=#f8cecc;gradientColor=#ea6b66;strokeColor=#b85450;" vertex="1" parent="1">
          <mxGeometry x="1380" y="160" width="100" height="40" as="geometry" />
        </mxCell>
        <mxCell id="J-O4yul9uTSDfZJT4Otk-235" value="created_at" style="ellipse;whiteSpace=wrap;html=1;fillColor=#f8cecc;gradientColor=#ea6b66;strokeColor=#b85450;" vertex="1" parent="1">
          <mxGeometry x="1460" y="205" width="100" height="40" as="geometry" />
        </mxCell>
        <mxCell id="J-O4yul9uTSDfZJT4Otk-236" value="status" style="ellipse;whiteSpace=wrap;html=1;fillColor=#f8cecc;gradientColor=#ea6b66;strokeColor=#b85450;" vertex="1" parent="1">
          <mxGeometry x="1490" y="270" width="100" height="40" as="geometry" />
        </mxCell>
        <mxCell id="J-O4yul9uTSDfZJT4Otk-237" value="updated_at" style="ellipse;whiteSpace=wrap;html=1;fillColor=#f8cecc;gradientColor=#ea6b66;strokeColor=#b85450;" vertex="1" parent="1">
          <mxGeometry x="1480" y="345" width="100" height="40" as="geometry" />
        </mxCell>
        <mxCell id="J-O4yul9uTSDfZJT4Otk-238" value="attendance_date" style="ellipse;whiteSpace=wrap;html=1;fillColor=#f8cecc;gradientColor=#ea6b66;strokeColor=#b85450;" vertex="1" parent="1">
          <mxGeometry x="1340" y="360" width="130" height="40" as="geometry" />
        </mxCell>
        <mxCell id="J-O4yul9uTSDfZJT4Otk-239" value="user_id" style="ellipse;whiteSpace=wrap;html=1;fillColor=#f8cecc;gradientColor=#ea6b66;strokeColor=#b85450;" vertex="1" parent="1">
          <mxGeometry x="1275" y="320" width="100" height="40" as="geometry" />
        </mxCell>
        <mxCell id="J-O4yul9uTSDfZJT4Otk-240" value="" style="endArrow=none;html=1;rounded=0;entryX=1;entryY=1;entryDx=0;entryDy=0;exitX=1;exitY=0;exitDx=0;exitDy=0;" edge="1" parent="1" source="J-O4yul9uTSDfZJT4Otk-238" target="J-O4yul9uTSDfZJT4Otk-78">
          <mxGeometry width="50" height="50" relative="1" as="geometry">
            <mxPoint x="1510" y="480" as="sourcePoint" />
            <mxPoint x="1560" y="430" as="targetPoint" />
          </mxGeometry>
        </mxCell>
        <mxCell id="J-O4yul9uTSDfZJT4Otk-241" value="" style="endArrow=none;html=1;rounded=0;entryX=0.5;entryY=1;entryDx=0;entryDy=0;exitX=0.752;exitY=0.194;exitDx=0;exitDy=0;exitPerimeter=0;" edge="1" parent="1" source="J-O4yul9uTSDfZJT4Otk-239" target="J-O4yul9uTSDfZJT4Otk-78">
          <mxGeometry width="50" height="50" relative="1" as="geometry">
            <mxPoint x="1520" y="470" as="sourcePoint" />
            <mxPoint x="1570" y="420" as="targetPoint" />
          </mxGeometry>
        </mxCell>
        <mxCell id="J-O4yul9uTSDfZJT4Otk-242" value="" style="endArrow=none;html=1;rounded=0;entryX=1;entryY=0.75;entryDx=0;entryDy=0;exitX=0;exitY=0;exitDx=0;exitDy=0;" edge="1" parent="1" source="J-O4yul9uTSDfZJT4Otk-237" target="J-O4yul9uTSDfZJT4Otk-78">
          <mxGeometry width="50" height="50" relative="1" as="geometry">
            <mxPoint x="1510" y="510" as="sourcePoint" />
            <mxPoint x="1560" y="460" as="targetPoint" />
          </mxGeometry>
        </mxCell>
        <mxCell id="J-O4yul9uTSDfZJT4Otk-243" value="" style="endArrow=none;html=1;rounded=0;entryX=1;entryY=0.25;entryDx=0;entryDy=0;exitX=0;exitY=0.5;exitDx=0;exitDy=0;" edge="1" parent="1" source="J-O4yul9uTSDfZJT4Otk-236" target="J-O4yul9uTSDfZJT4Otk-78">
          <mxGeometry width="50" height="50" relative="1" as="geometry">
            <mxPoint x="1520" y="500" as="sourcePoint" />
            <mxPoint x="1570" y="450" as="targetPoint" />
          </mxGeometry>
        </mxCell>
        <mxCell id="J-O4yul9uTSDfZJT4Otk-244" value="" style="endArrow=none;html=1;rounded=0;entryX=0;entryY=0.5;entryDx=0;entryDy=0;exitX=1;exitY=0;exitDx=0;exitDy=0;" edge="1" parent="1" source="J-O4yul9uTSDfZJT4Otk-78" target="J-O4yul9uTSDfZJT4Otk-235">
          <mxGeometry width="50" height="50" relative="1" as="geometry">
            <mxPoint x="1500" y="490" as="sourcePoint" />
            <mxPoint x="1550" y="440" as="targetPoint" />
          </mxGeometry>
        </mxCell>
        <mxCell id="J-O4yul9uTSDfZJT4Otk-245" value="" style="endArrow=none;html=1;rounded=0;entryX=0;entryY=1;entryDx=0;entryDy=0;exitX=0.75;exitY=0;exitDx=0;exitDy=0;" edge="1" parent="1" source="J-O4yul9uTSDfZJT4Otk-78" target="J-O4yul9uTSDfZJT4Otk-234">
          <mxGeometry width="50" height="50" relative="1" as="geometry">
            <mxPoint x="1500" y="510" as="sourcePoint" />
            <mxPoint x="1550" y="460" as="targetPoint" />
          </mxGeometry>
        </mxCell>
        <mxCell id="J-O4yul9uTSDfZJT4Otk-246" value="&lt;u&gt;id&lt;/u&gt;" style="ellipse;whiteSpace=wrap;html=1;fillColor=#f8cecc;gradientColor=#ea6b66;strokeColor=#b85450;" vertex="1" parent="1">
          <mxGeometry x="1160" y="410" width="100" height="40" as="geometry" />
        </mxCell>
        <mxCell id="J-O4yul9uTSDfZJT4Otk-247" value="day_wise_entry_no" style="ellipse;whiteSpace=wrap;html=1;fillColor=#f8cecc;gradientColor=#ea6b66;strokeColor=#b85450;" vertex="1" parent="1">
          <mxGeometry x="1265" y="410" width="120" height="40" as="geometry" />
        </mxCell>
        <mxCell id="J-O4yul9uTSDfZJT4Otk-248" value="size" style="ellipse;whiteSpace=wrap;html=1;fillColor=#f8cecc;gradientColor=#ea6b66;strokeColor=#b85450;" vertex="1" parent="1">
          <mxGeometry x="1390" y="420" width="100" height="40" as="geometry" />
        </mxCell>
        <mxCell id="J-O4yul9uTSDfZJT4Otk-249" value="size_type" style="ellipse;whiteSpace=wrap;html=1;fillColor=#f8cecc;gradientColor=#ea6b66;strokeColor=#b85450;" vertex="1" parent="1">
          <mxGeometry x="1530" y="480" width="100" height="40" as="geometry" />
        </mxCell>
        <mxCell id="J-O4yul9uTSDfZJT4Otk-250" value="rate" style="ellipse;whiteSpace=wrap;html=1;fillColor=#f8cecc;gradientColor=#ea6b66;strokeColor=#b85450;" vertex="1" parent="1">
          <mxGeometry x="1540" y="530" width="100" height="40" as="geometry" />
        </mxCell>
        <mxCell id="J-O4yul9uTSDfZJT4Otk-251" value="bag" style="ellipse;whiteSpace=wrap;html=1;fillColor=#f8cecc;gradientColor=#ea6b66;strokeColor=#b85450;" vertex="1" parent="1">
          <mxGeometry x="1500" y="590" width="100" height="40" as="geometry" />
        </mxCell>
        <mxCell id="J-O4yul9uTSDfZJT4Otk-252" value="weight" style="ellipse;whiteSpace=wrap;html=1;fillColor=#f8cecc;gradientColor=#ea6b66;strokeColor=#b85450;" vertex="1" parent="1">
          <mxGeometry x="1400" y="630" width="100" height="40" as="geometry" />
        </mxCell>
        <mxCell id="J-O4yul9uTSDfZJT4Otk-253" value="guage" style="ellipse;whiteSpace=wrap;html=1;fillColor=#f8cecc;gradientColor=#ea6b66;strokeColor=#b85450;" vertex="1" parent="1">
          <mxGeometry x="1075" y="500" width="100" height="40" as="geometry" />
        </mxCell>
        <mxCell id="J-O4yul9uTSDfZJT4Otk-254" value="is_small" style="ellipse;whiteSpace=wrap;html=1;fillColor=#f8cecc;gradientColor=#ea6b66;strokeColor=#b85450;" vertex="1" parent="1">
          <mxGeometry x="1090" y="550" width="100" height="40" as="geometry" />
        </mxCell>
        <mxCell id="J-O4yul9uTSDfZJT4Otk-255" value="entry_month" style="ellipse;whiteSpace=wrap;html=1;fillColor=#f8cecc;gradientColor=#ea6b66;strokeColor=#b85450;" vertex="1" parent="1">
          <mxGeometry x="1110" y="610" width="100" height="40" as="geometry" />
        </mxCell>
        <mxCell id="J-O4yul9uTSDfZJT4Otk-256" value="user_id" style="ellipse;whiteSpace=wrap;html=1;fillColor=#f8cecc;gradientColor=#ea6b66;strokeColor=#b85450;" vertex="1" parent="1">
          <mxGeometry x="1290" y="645" width="100" height="40" as="geometry" />
        </mxCell>
        <mxCell id="J-O4yul9uTSDfZJT4Otk-257" value="created_at" style="ellipse;whiteSpace=wrap;html=1;fillColor=#f8cecc;gradientColor=#ea6b66;strokeColor=#b85450;" vertex="1" parent="1">
          <mxGeometry x="1500" y="425" width="100" height="40" as="geometry" />
        </mxCell>
        <mxCell id="J-O4yul9uTSDfZJT4Otk-258" value="updated_at" style="ellipse;whiteSpace=wrap;html=1;fillColor=#f8cecc;gradientColor=#ea6b66;strokeColor=#b85450;" vertex="1" parent="1">
          <mxGeometry x="1175" y="660" width="100" height="40" as="geometry" />
        </mxCell>
        <mxCell id="J-O4yul9uTSDfZJT4Otk-259" value="" style="endArrow=none;html=1;rounded=0;entryX=0;entryY=0.5;entryDx=0;entryDy=0;exitX=1;exitY=0.75;exitDx=0;exitDy=0;" edge="1" parent="1" source="J-O4yul9uTSDfZJT4Otk-108" target="J-O4yul9uTSDfZJT4Otk-249">
          <mxGeometry width="50" height="50" relative="1" as="geometry">
            <mxPoint x="1260" y="620" as="sourcePoint" />
            <mxPoint x="1310" y="570" as="targetPoint" />
          </mxGeometry>
        </mxCell>
        <mxCell id="J-O4yul9uTSDfZJT4Otk-260" value="" style="endArrow=none;html=1;rounded=0;entryX=0;entryY=0.5;entryDx=0;entryDy=0;exitX=1;exitY=1;exitDx=0;exitDy=0;" edge="1" parent="1" source="J-O4yul9uTSDfZJT4Otk-108" target="J-O4yul9uTSDfZJT4Otk-250">
          <mxGeometry width="50" height="50" relative="1" as="geometry">
            <mxPoint x="1350" y="590" as="sourcePoint" />
            <mxPoint x="1400" y="540" as="targetPoint" />
          </mxGeometry>
        </mxCell>
        <mxCell id="J-O4yul9uTSDfZJT4Otk-261" value="" style="endArrow=none;html=1;rounded=0;entryX=0;entryY=0.5;entryDx=0;entryDy=0;exitX=0.856;exitY=1.006;exitDx=0;exitDy=0;exitPerimeter=0;" edge="1" parent="1" source="J-O4yul9uTSDfZJT4Otk-108" target="J-O4yul9uTSDfZJT4Otk-251">
          <mxGeometry width="50" height="50" relative="1" as="geometry">
            <mxPoint x="1270" y="600" as="sourcePoint" />
            <mxPoint x="1320" y="550" as="targetPoint" />
          </mxGeometry>
        </mxCell>
        <mxCell id="J-O4yul9uTSDfZJT4Otk-262" value="" style="endArrow=none;html=1;rounded=0;entryX=0.75;entryY=1;entryDx=0;entryDy=0;exitX=0.252;exitY=0.069;exitDx=0;exitDy=0;exitPerimeter=0;" edge="1" parent="1" source="J-O4yul9uTSDfZJT4Otk-252" target="J-O4yul9uTSDfZJT4Otk-108">
          <mxGeometry width="50" height="50" relative="1" as="geometry">
            <mxPoint x="1250" y="590" as="sourcePoint" />
            <mxPoint x="1300" y="540" as="targetPoint" />
          </mxGeometry>
        </mxCell>
        <mxCell id="J-O4yul9uTSDfZJT4Otk-263" value="" style="endArrow=none;html=1;rounded=0;entryX=0.679;entryY=1.069;entryDx=0;entryDy=0;entryPerimeter=0;exitX=0.5;exitY=0;exitDx=0;exitDy=0;" edge="1" parent="1" source="J-O4yul9uTSDfZJT4Otk-256" target="J-O4yul9uTSDfZJT4Otk-108">
          <mxGeometry width="50" height="50" relative="1" as="geometry">
            <mxPoint x="1230" y="620" as="sourcePoint" />
            <mxPoint x="1280" y="570" as="targetPoint" />
          </mxGeometry>
        </mxCell>
        <mxCell id="J-O4yul9uTSDfZJT4Otk-264" value="" style="endArrow=none;html=1;rounded=0;entryX=0.583;entryY=1;entryDx=0;entryDy=0;entryPerimeter=0;exitX=0.5;exitY=0;exitDx=0;exitDy=0;" edge="1" parent="1" source="J-O4yul9uTSDfZJT4Otk-258" target="J-O4yul9uTSDfZJT4Otk-108">
          <mxGeometry width="50" height="50" relative="1" as="geometry">
            <mxPoint x="1230" y="610" as="sourcePoint" />
            <mxPoint x="1280" y="560" as="targetPoint" />
          </mxGeometry>
        </mxCell>
        <mxCell id="J-O4yul9uTSDfZJT4Otk-265" value="" style="endArrow=none;html=1;rounded=0;entryX=0.25;entryY=1;entryDx=0;entryDy=0;exitX=1;exitY=0;exitDx=0;exitDy=0;" edge="1" parent="1" source="J-O4yul9uTSDfZJT4Otk-255" target="J-O4yul9uTSDfZJT4Otk-108">
          <mxGeometry width="50" height="50" relative="1" as="geometry">
            <mxPoint x="1380" y="770" as="sourcePoint" />
            <mxPoint x="1430" y="720" as="targetPoint" />
          </mxGeometry>
        </mxCell>
        <mxCell id="J-O4yul9uTSDfZJT4Otk-266" value="" style="endArrow=none;html=1;rounded=0;entryX=0;entryY=1;entryDx=0;entryDy=0;" edge="1" parent="1" source="J-O4yul9uTSDfZJT4Otk-254" target="J-O4yul9uTSDfZJT4Otk-108">
          <mxGeometry width="50" height="50" relative="1" as="geometry">
            <mxPoint x="1410" y="790" as="sourcePoint" />
            <mxPoint x="1460" y="740" as="targetPoint" />
          </mxGeometry>
        </mxCell>
        <mxCell id="J-O4yul9uTSDfZJT4Otk-267" value="" style="endArrow=none;html=1;rounded=0;entryX=1;entryY=0.5;entryDx=0;entryDy=0;exitX=0;exitY=0.75;exitDx=0;exitDy=0;" edge="1" parent="1" source="J-O4yul9uTSDfZJT4Otk-108" target="J-O4yul9uTSDfZJT4Otk-253">
          <mxGeometry width="50" height="50" relative="1" as="geometry">
            <mxPoint x="1420" y="760" as="sourcePoint" />
            <mxPoint x="1470" y="710" as="targetPoint" />
          </mxGeometry>
        </mxCell>
        <mxCell id="J-O4yul9uTSDfZJT4Otk-268" value="" style="endArrow=none;html=1;rounded=0;entryX=0.302;entryY=1.037;entryDx=0;entryDy=0;entryPerimeter=0;exitX=1;exitY=0.25;exitDx=0;exitDy=0;" edge="1" parent="1" source="J-O4yul9uTSDfZJT4Otk-108" target="J-O4yul9uTSDfZJT4Otk-248">
          <mxGeometry width="50" height="50" relative="1" as="geometry">
            <mxPoint x="1470" y="790" as="sourcePoint" />
            <mxPoint x="1520" y="740" as="targetPoint" />
          </mxGeometry>
        </mxCell>
        <mxCell id="J-O4yul9uTSDfZJT4Otk-269" value="" style="endArrow=none;html=1;rounded=0;entryX=0.5;entryY=1;entryDx=0;entryDy=0;" edge="1" parent="1" source="J-O4yul9uTSDfZJT4Otk-108" target="J-O4yul9uTSDfZJT4Otk-247">
          <mxGeometry width="50" height="50" relative="1" as="geometry">
            <mxPoint x="1490" y="780" as="sourcePoint" />
            <mxPoint x="1540" y="730" as="targetPoint" />
          </mxGeometry>
        </mxCell>
        <mxCell id="J-O4yul9uTSDfZJT4Otk-270" value="" style="endArrow=none;html=1;rounded=0;entryX=0.652;entryY=1.069;entryDx=0;entryDy=0;entryPerimeter=0;exitX=0.25;exitY=0;exitDx=0;exitDy=0;" edge="1" parent="1" source="J-O4yul9uTSDfZJT4Otk-108" target="J-O4yul9uTSDfZJT4Otk-246">
          <mxGeometry width="50" height="50" relative="1" as="geometry">
            <mxPoint x="1480" y="760" as="sourcePoint" />
            <mxPoint x="1530" y="710" as="targetPoint" />
          </mxGeometry>
        </mxCell>
        <mxCell id="J-O4yul9uTSDfZJT4Otk-271" value="&lt;u&gt;id&lt;/u&gt;" style="ellipse;whiteSpace=wrap;html=1;fillColor=#f8cecc;gradientColor=#ea6b66;strokeColor=#b85450;" vertex="1" parent="1">
          <mxGeometry x="1310" y="760" width="100" height="40" as="geometry" />
        </mxCell>
        <mxCell id="J-O4yul9uTSDfZJT4Otk-272" value="emp_id" style="ellipse;whiteSpace=wrap;html=1;fillColor=#f8cecc;gradientColor=#ea6b66;strokeColor=#b85450;" vertex="1" parent="1">
          <mxGeometry x="1410" y="780" width="100" height="40" as="geometry" />
        </mxCell>
        <mxCell id="J-O4yul9uTSDfZJT4Otk-273" value="basic_salary" style="ellipse;whiteSpace=wrap;html=1;fillColor=#f8cecc;gradientColor=#ea6b66;strokeColor=#b85450;" vertex="1" parent="1">
          <mxGeometry x="1440" y="905" width="100" height="40" as="geometry" />
        </mxCell>
        <mxCell id="J-O4yul9uTSDfZJT4Otk-274" value="advance_amt" style="ellipse;whiteSpace=wrap;html=1;fillColor=#f8cecc;gradientColor=#ea6b66;strokeColor=#b85450;" vertex="1" parent="1">
          <mxGeometry x="1410" y="960" width="100" height="40" as="geometry" />
        </mxCell>
        <mxCell id="J-O4yul9uTSDfZJT4Otk-275" value="payment_month" style="ellipse;whiteSpace=wrap;html=1;fillColor=#f8cecc;gradientColor=#ea6b66;strokeColor=#b85450;" vertex="1" parent="1">
          <mxGeometry x="1090" y="860" width="100" height="40" as="geometry" />
        </mxCell>
        <mxCell id="J-O4yul9uTSDfZJT4Otk-276" value="created_at" style="ellipse;whiteSpace=wrap;html=1;fillColor=#f8cecc;gradientColor=#ea6b66;strokeColor=#b85450;" vertex="1" parent="1">
          <mxGeometry x="1130" y="810" width="100" height="40" as="geometry" />
        </mxCell>
        <mxCell id="J-O4yul9uTSDfZJT4Otk-277" value="updated_at" style="ellipse;whiteSpace=wrap;html=1;fillColor=#f8cecc;gradientColor=#ea6b66;strokeColor=#b85450;" vertex="1" parent="1">
          <mxGeometry x="1320" y="1000" width="100" height="40" as="geometry" />
        </mxCell>
        <mxCell id="J-O4yul9uTSDfZJT4Otk-278" value="deposit_amount" style="ellipse;whiteSpace=wrap;html=1;fillColor=#f8cecc;gradientColor=#ea6b66;strokeColor=#b85450;" vertex="1" parent="1">
          <mxGeometry x="1100" y="930" width="100" height="40" as="geometry" />
        </mxCell>
        <mxCell id="J-O4yul9uTSDfZJT4Otk-279" value="overtime_hours" style="ellipse;whiteSpace=wrap;html=1;fillColor=#f8cecc;gradientColor=#ea6b66;strokeColor=#b85450;" vertex="1" parent="1">
          <mxGeometry x="1120" y="980" width="100" height="40" as="geometry" />
        </mxCell>
        <mxCell id="J-O4yul9uTSDfZJT4Otk-280" value="rate_of_per_hour" style="ellipse;whiteSpace=wrap;html=1;fillColor=#f8cecc;gradientColor=#ea6b66;strokeColor=#b85450;" vertex="1" parent="1">
          <mxGeometry x="1450" y="840" width="120" height="40" as="geometry" />
        </mxCell>
        <mxCell id="J-O4yul9uTSDfZJT4Otk-281" value="" style="endArrow=none;html=1;rounded=0;entryX=0;entryY=1;entryDx=0;entryDy=0;exitX=1;exitY=0.25;exitDx=0;exitDy=0;" edge="1" parent="1" source="J-O4yul9uTSDfZJT4Otk-93" target="J-O4yul9uTSDfZJT4Otk-272">
          <mxGeometry width="50" height="50" relative="1" as="geometry">
            <mxPoint x="1370" y="895" as="sourcePoint" />
            <mxPoint x="1420" y="845" as="targetPoint" />
          </mxGeometry>
        </mxCell>
        <mxCell id="J-O4yul9uTSDfZJT4Otk-282" value="" style="endArrow=none;html=1;rounded=0;entryX=0;entryY=0.5;entryDx=0;entryDy=0;exitX=1;exitY=0.5;exitDx=0;exitDy=0;" edge="1" parent="1" source="J-O4yul9uTSDfZJT4Otk-93" target="J-O4yul9uTSDfZJT4Otk-280">
          <mxGeometry width="50" height="50" relative="1" as="geometry">
            <mxPoint x="1390" y="910" as="sourcePoint" />
            <mxPoint x="1440" y="860" as="targetPoint" />
          </mxGeometry>
        </mxCell>
        <mxCell id="J-O4yul9uTSDfZJT4Otk-283" value="" style="endArrow=none;html=1;rounded=0;entryX=0;entryY=0.5;entryDx=0;entryDy=0;exitX=1;exitY=0.75;exitDx=0;exitDy=0;" edge="1" parent="1" source="J-O4yul9uTSDfZJT4Otk-93" target="J-O4yul9uTSDfZJT4Otk-273">
          <mxGeometry width="50" height="50" relative="1" as="geometry">
            <mxPoint x="1350" y="950" as="sourcePoint" />
            <mxPoint x="1400" y="900" as="targetPoint" />
          </mxGeometry>
        </mxCell>
        <mxCell id="J-O4yul9uTSDfZJT4Otk-284" value="" style="endArrow=none;html=1;rounded=0;exitX=1;exitY=1;exitDx=0;exitDy=0;" edge="1" parent="1" source="J-O4yul9uTSDfZJT4Otk-93" target="J-O4yul9uTSDfZJT4Otk-274">
          <mxGeometry width="50" height="50" relative="1" as="geometry">
            <mxPoint x="1310" y="980" as="sourcePoint" />
            <mxPoint x="1360" y="930" as="targetPoint" />
          </mxGeometry>
        </mxCell>
        <mxCell id="J-O4yul9uTSDfZJT4Otk-285" value="" style="endArrow=none;html=1;rounded=0;entryX=0;entryY=0;entryDx=0;entryDy=0;exitX=0.75;exitY=1;exitDx=0;exitDy=0;" edge="1" parent="1" source="J-O4yul9uTSDfZJT4Otk-93" target="J-O4yul9uTSDfZJT4Otk-277">
          <mxGeometry width="50" height="50" relative="1" as="geometry">
            <mxPoint x="1290" y="960" as="sourcePoint" />
            <mxPoint x="1340" y="910" as="targetPoint" />
          </mxGeometry>
        </mxCell>
        <mxCell id="J-O4yul9uTSDfZJT4Otk-286" value="" style="endArrow=none;html=1;rounded=0;entryX=0;entryY=0.25;entryDx=0;entryDy=0;exitX=1;exitY=0;exitDx=0;exitDy=0;" edge="1" parent="1" source="J-O4yul9uTSDfZJT4Otk-279" target="J-O4yul9uTSDfZJT4Otk-105">
          <mxGeometry width="50" height="50" relative="1" as="geometry">
            <mxPoint x="1220" y="960" as="sourcePoint" />
            <mxPoint x="1270" y="910" as="targetPoint" />
          </mxGeometry>
        </mxCell>
        <mxCell id="J-O4yul9uTSDfZJT4Otk-287" value="" style="endArrow=none;html=1;rounded=0;entryX=0;entryY=1;entryDx=0;entryDy=0;exitX=1;exitY=0;exitDx=0;exitDy=0;" edge="1" parent="1" source="J-O4yul9uTSDfZJT4Otk-278" target="J-O4yul9uTSDfZJT4Otk-93">
          <mxGeometry width="50" height="50" relative="1" as="geometry">
            <mxPoint x="1580" y="1040" as="sourcePoint" />
            <mxPoint x="1630" y="990" as="targetPoint" />
          </mxGeometry>
        </mxCell>
        <mxCell id="J-O4yul9uTSDfZJT4Otk-288" value="" style="endArrow=none;html=1;rounded=0;entryX=0.265;entryY=0.975;entryDx=0;entryDy=0;entryPerimeter=0;exitX=0.75;exitY=0;exitDx=0;exitDy=0;" edge="1" parent="1" source="J-O4yul9uTSDfZJT4Otk-93" target="J-O4yul9uTSDfZJT4Otk-271">
          <mxGeometry width="50" height="50" relative="1" as="geometry">
            <mxPoint x="1490" y="1050" as="sourcePoint" />
            <mxPoint x="1540" y="1000" as="targetPoint" />
          </mxGeometry>
        </mxCell>
        <mxCell id="J-O4yul9uTSDfZJT4Otk-289" value="" style="endArrow=none;html=1;rounded=0;entryX=1;entryY=1;entryDx=0;entryDy=0;" edge="1" parent="1" source="J-O4yul9uTSDfZJT4Otk-93" target="J-O4yul9uTSDfZJT4Otk-276">
          <mxGeometry width="50" height="50" relative="1" as="geometry">
            <mxPoint x="1590" y="1030" as="sourcePoint" />
            <mxPoint x="1640" y="980" as="targetPoint" />
          </mxGeometry>
        </mxCell>
        <mxCell id="J-O4yul9uTSDfZJT4Otk-290" value="" style="endArrow=none;html=1;rounded=0;entryX=1.002;entryY=0.725;entryDx=0;entryDy=0;entryPerimeter=0;exitX=0;exitY=0.5;exitDx=0;exitDy=0;" edge="1" parent="1" source="J-O4yul9uTSDfZJT4Otk-93" target="J-O4yul9uTSDfZJT4Otk-275">
          <mxGeometry width="50" height="50" relative="1" as="geometry">
            <mxPoint x="1580" y="1040" as="sourcePoint" />
            <mxPoint x="1630" y="990" as="targetPoint" />
          </mxGeometry>
        </mxCell>
      </root>
    </mxGraphModel>
  </diagram>
</mxfile>
